<svg width="96" height="96" fill="none" xmlns="http://www.w3.org/2000/svg"><rect width="96" height="96" rx="48" fill="#fff"/><path d="M10.4453 61.0391c0-.7188.1016-1.4532.3047-2.2032.2031-.7656.4766-1.3984.8203-1.8984l2.25.4219 2.5313-21.9375-3.6094-.5157c-.2969-.7812-.4453-1.5781-.4453-2.3906 0-.8281.164-1.6718.4922-2.5312.8281-.3906 2.2421-.7032 4.2421-.9375 2.0157-.25 3.8047-.375 5.3672-.375 1.4532 0 3.2422.0312 5.3672.0937l.8203.375c.3438.9688.8125 2.6328 1.4063 4.9922.6094 2.3438 1.6406 6.4844 3.0937 12.4219.2344.9219.4922 1.9687.7735 3.1406.75-2.7187 1.6718-6.5625 2.7656-11.5312l.5859-2.5547h.1172l-3.8906-.6563c-.375-.875-.5625-1.8125-.5625-2.8125 0-.6562.0859-1.3672.2578-2.1328 1.5156-.4844 3.0938-.8281 4.7344-1.0312 1.6562-.2032 3.4609-.3047 5.414-.3047h.7735c.8281 0 2.0078.0312 3.5391.0937l.8203.375c1 3.625 1.9531 8.0235 2.8593 13.1953.9219 5.1563 1.6172 9.8907 2.086 14.2032l.0703.5859c.0156.1094.0547.4844.1172 1.125.0625.625.0937 1.2266.0937 1.8047 0 .7031-.0703 1.3984-.2109 2.0859-.2344 1.0313-.6563 1.8828-1.2656 2.5547-.6094.25-1.25.4375-1.9219.5625-.6563.1406-1.4219.211-2.2969.211-.8594 0-1.7187-.1016-2.5781-.3047-.8438-.1875-1.4063-.4688-1.6875-.8438l.8437-5.3672-1.4062-14.7422.1172-7.8515h-.7266l-1.1484 8.039c-1.5313 5.6719-2.9297 10.0625-4.1953 13.1719.4375.8594.8125 1.8125 1.125 2.8594.3281 1.0469.5312 2.0703.6093 3.0703-.6562.625-1.5546 1.1094-2.6953 1.4531-1.125.3438-2.3203.5157-3.5859.5157-1.2969 0-2.4844-.1797-3.5625-.5391-1.0625-.3594-1.8359-.8594-2.3203-1.5.0781-1.5781.4687-3.1016 1.1718-4.5703l-4.1718-15.0703L22 36.6875l-.7969.1172 1.1485 7.9453c-.0625 2.7656-.1641 5.5781-.3047 8.4375-.1407 2.8594-.2969 5.125-.4688 6.7969h.0235c-.125.9844-.461 1.8594-1.0078 2.625-.5313.75-1.211 1.3359-2.0391 1.7578-.8125.4219-1.6953.6328-2.6485.6328-2.5 0-4.3046-1.0781-5.414-3.2344-.0313-.3125-.0469-.5547-.0469-.7265Z" fill="#000"/><path d="M58.8672 47.6562c0-4.7343.0703-8.3671.2109-10.8984h-.0234l-3.5859-.4922c-.2032-.5781-.3594-1.2109-.4688-1.8984-.1094-.7031-.1641-1.3828-.1641-2.0391 0-.5.0391-1.0469.1172-1.6406 1.9063-.6406 4.3985-1.1328 7.4766-1.4766 3.0781-.3593 6.0156-.539 8.8125-.539 2.3906 0 4.4453.1875 6.164.5625 1.7188.3594 3.1563 1.1875 4.3126 2.4844 1.1718 1.2812 1.7578 3.1953 1.7578 5.7421 0 1-.2735 2.1329-.8204 3.3985-.5468 1.25-1.2656 2.4297-2.1562 3.539-.875 1.0938-1.7891 1.9375-2.7422 2.5313 1.1875.2031 2.2891.6172 3.3047 1.2422 1.0313.6093 1.8672 1.4453 2.5078 2.5078.6406 1.0469.9609 2.2891.9609 3.7265 0 1.9219-.3671 3.5782-1.1015 4.9688-.7344 1.3906-1.7813 2.5391-3.1406 3.4453-2.6563 1.7656-6.4063 2.6485-11.25 2.6485-1.9063 0-3.6016-.0391-5.086-.1172-1.4687-.0625-2.8281-.1875-4.0781-.375-.6719-3.625-1.0078-9.3985-1.0078-17.3204Zm13.3359-1.4765c.4063-1.1406.75-2.5859 1.0313-4.3359.2968-1.7657.4765-3.2032.539-4.3126-.0781-.1406-.4765-.2578-1.1953-.3515-.7187-.1094-1.6484-.1641-2.789-.1641-.3594 0-.961.0235-1.8047.0703-.125 3.5157-.3125 6.6719-.5625 9.4688l2.3672-.1875 2.414-.1875Zm-1.1719 13.1484c1.3126 0 2.25-.0547 2.8126-.164.3906-.2344.7343-.6563 1.0312-1.2657.3125-.6093.5469-1.2734.7031-1.9922.1563-.7343.2344-1.3906.2344-1.9687-.2813-.8125-1.6797-1.2187-4.1953-1.2187-1.0625 0-2.2813.0703-3.6563.2109-.375.0469-.6562.0703-.8437.0703l-.0703 3.4219c-.0157.3437-.0313.7422-.0469 1.1953-.0156.4531-.0234.9609-.0234 1.5234 1.0312.125 2.1562.1875 3.375.1875h.6796Z" fill="#fff"/><path d="m10.75 58.8359.9652.2615.0014-.005-.9666-.2565Zm.8203-1.8984.1843-.9829-.6396-.1199-.3687.5363.824.5665Zm2.25.4219-.1843.9828 1.0547.1978.123-1.066-.9934-.1146Zm2.5313-21.9375.9934.1146.1115-.9669-.9635-.1377-.1414.99Zm-3.6094-.5157-.9348.3553.2095.5513.5839.0834.1414-.99Zm.0469-4.9218-.4267-.9045-.364.1718-.1436.376.9343.3567Zm4.2421-.9375.1164.9932.0067-.0008-.1231-.9924Zm10.7344-.2813.4158-.9094-.1841-.0842-.2023-.0059-.0294.9995Zm.8203.375.9425-.3344-.1416-.399-.3851-.176-.4158.9094Zm1.4063 4.9922-.9698.2441.002.0075.9678-.2516Zm3.0937 12.4219-.9713.2377.0022.0087.9691-.2464Zm.7735 3.1406-.9724.2334 1.9364.0325-.964-.2659Zm2.7656-11.5312-.9747-.2236-.0019.0086.9766.215Zm.5859-2.5547v-1h-.7966l-.1781.7764.9747.2236Zm.1172 0v1l.1664-1.9861-.1664.9861Zm-3.8906-.6563-.9191.3939.2148.5015.538.0907.1663-.9861Zm-.3047-4.9453-.3044-.9525-.5458.1744-.1255.5591.9757.219Zm4.7344-1.0312-.1217-.9926-.0012.0001.1229.9925Zm9.7266-.211.4157-.9094-.1787-.0817-.1963-.008-.0407.9991Zm.8203.375.964-.2659-.1241-.4496-.4242-.1939-.4157.9094Zm2.8593 13.1953-.985.1726.0006.0034.9844-.176Zm2.086 14.2032-.9942.108.0013.0111.9929-.1191Zm.0703.5859-.9929.1191.0013.0112.0016.0111.99-.1414Zm.1172 1.125-.9953.0971.0002.0024.9951-.0995Zm-.1172 3.8906.9751.2216.0024-.0105.0022-.0107-.9797-.2004Zm-1.2656 2.5547.3795.9252.2092-.0859.152-.1675-.7407-.6718Zm-1.9219.5625-.1829-.9831-.0134.0025-.0132.0028.2095.9778Zm-4.875-.0937.23-.9733-.0131-.0029-.2169.9762Zm-1.6875-.8438-.9879-.1553-.0656.4173.2535.338.8-.6Zm.8437-5.3672.9879.1553.0196-.1246-.012-.1256-.9955.0949Zm-1.4062-14.7422-.9999-.0149-.0008.0551.0052.0548.9955-.095Zm.1172-7.8515.9999.0149.0151-1.0149h-1.015v1Zm-.7266 0v-1h-.8673l-.1226.8586.9899.1414Zm-1.1484 8.039.9654.2607.0159-.0589.0086-.0603-.9899-.1415Zm-4.1953 13.1719-.9263-.377-.1723.4234.2074.4073.8912-.4537Zm1.125 2.8594-.9583.286.004.0131.9543-.2991Zm.6093 3.0703.6897.7241.3443-.3279-.037-.4741-.997.0779Zm-2.6953 1.4531-.2885-.9574-.0037.0011.2922.9563Zm-7.1484-.0234-.3204.9473.0042.0014.3162-.9487Zm-2.3203-1.5-.9988-.0495-.018.3628.2191.2898.7977-.6031Zm1.1718-4.5703.902.4318.1617-.3378-.0999-.3608-.9638.2668Zm-4.1718-15.0703-.9715.2372.0036.0148.0041.0148.9638-.2668ZM22 36.6875l.9714-.2373-.216-.8845-.9009.1324.1455.9894Zm-.7969.1172-.1455-.9894-.9869.1452.1427.9872.9897-.143Zm1.1485 7.9453.9997.0226.0019-.0832-.0119-.0825-.9897.1431Zm-.7735 15.2344-.9947-.1023-.1133 1.1023h1.108v-1Zm.0235 0 .992.1259.143-1.1259h-1.135v1Zm-1.0078 2.625-.8138-.5813-.0023.0033.8161.578Zm-2.0391 1.7578-.454-.8911-.0068.0036.4608.8875Zm-8.0625-2.6016-.99505.0995.01891.1891.08691.1689.88923-.4575Zm.9531-.7265c0-.6237.088-1.2701.2699-1.9417l-1.93043-.5229c-.22434.8284-.33946 1.6507-.33946 2.4646h1.99999Zm.2713-1.9467c.1822-.6869.4153-1.2067.6778-1.5884l-1.6481-1.133c-.4251.6183-.7388 1.3641-.96286 2.2085l1.93316.5129Zm-.3306-1.172 2.25.4218.3686-1.9657-2.25-.4219-.3686 1.9658Zm3.4277-.4464 2.5313-21.9375-1.9868-.2292-2.5313 21.9375 1.9868.2292Zm1.6793-23.0421-3.6094-.5156-.2828 1.9799 3.6093.5156.2829-1.9799Zm-2.816.1191c-.255-.6711-.3801-1.3477-.3801-2.0354h-2c0 .9374.1718 1.8545.5105 2.7459l1.8696-.7105Zm-.3801-2.0354c0-.6934.1369-1.4165.4264-2.1745l-1.8685-.7134c-.3668.9607-.5579 1.9251-.5579 2.8879h2Zm-.0812-1.6268c.6694-.3158 1.942-.6155 3.9319-.8487l-.2327-1.9864c-2.0101.2355-3.5657.5608-4.5525 1.0262l.8533 1.8089Zm3.9386-.8495c1.9862-.2464 3.7328-.3674 5.2441-.3674v-2c-1.6137 0-3.4452.1289-5.4902.3826l.2461 1.9848Zm5.2441-.3674c1.44 0 3.2186.031 5.3378.0933l.0588-1.9991c-2.1307-.0627-3.9303-.0942-5.3966-.0942v2Zm4.9515.0032.8203.375.8315-1.8189-.8203-.375-.8315 1.8189Zm.2936-.2001c.3264.9199.7853 2.5431 1.3789 4.9019l1.9396-.4881c-.594-2.3601-1.0725-4.0649-1.4336-5.0826l-1.8849.6688Zm1.3809 4.9094c.6073 2.336 1.637 6.4703 3.0902 12.408l1.9427-.4754c-1.4531-5.9373-2.4859-10.0843-3.0973-12.4358l-1.9356.5032Zm3.0924 12.4167c.233.9166.4897 1.959.7702 3.1276l1.9448-.4668c-.2821-1.1751-.541-2.2264-.7767-3.1536l-1.9383.4928Zm2.7066 3.1601c.7569-2.7439 1.6832-6.6075 2.7782-11.5822l-1.9532-.4299c-1.0925 4.9629-2.01 8.7867-2.753 11.4803l1.928.5318Zm2.7763-11.5736.5859-2.5547-1.9494-.4471-.5859 2.5547 1.9494.4471Zm-.3888-1.7782h.1172v-2h-.1172v2Zm.2836-1.9861-3.8907-.6562-.3326 1.9721 3.8906.6562.3327-1.9721Zm-3.1379-.0641c-.3189-.7443-.4816-1.547-.4816-2.4186h-2c0 1.1285.2123 2.2007.6434 3.2064l1.8382-.7878Zm-.4816-2.4186c0-.5699.0748-1.2065.2335-1.9137l-1.9514-.4381c-.185.824-.2821 1.6092-.2821 2.3518h2Zm-.4378-1.1802c1.4543-.4648 2.9715-.7956 4.5529-.9914l-.2458-1.9849c-1.6998.2105-3.3389.5672-4.9159 1.0712l.6088 1.9051Zm4.5517-.9913c1.6098-.1974 3.3733-.2972 5.2923-.2972v-2c-1.9871 0-3.833.1033-5.5357.3121l.2434 1.9851Zm5.2923-.2972h.7735v-2h-.7735v2Zm.7735 0c.8076 0 1.9713.0306 3.4983.0929l.0815-1.9983c-1.5355-.0627-2.7312-.0946-3.5798-.0946v2Zm3.1233.0032.8203.375.8315-1.8189-.8203-.375-.8315 1.8189Zm.2721-.2685c.9889 3.5848 1.9356 7.9502 2.8383 13.1019l1.97-.3452c-.9098-5.192-1.8693-9.6235-2.8803-13.2886l-1.928.5319Zm2.8389 13.1053c.9187 5.1382 1.6104 9.8496 2.0762 14.1352l1.9883-.2161c-.4716-4.3393-1.1706-9.0967-2.0957-14.2711l-1.9688.352Zm2.0775 14.1463.0703.5859 1.9858-.2382-.0703-.586-1.9858.2383Zm.0732.6082c.0116.0812.0481.4265.1119 1.0807l1.9905-.1942c-.0611-.6271-.1028-1.0317-.1225-1.1693l-1.9799.2828Zm.1121 1.0831c.0595.5947.0888 1.163.0888 1.7052h2c0-.6141-.0332-1.2489-.0987-1.9042l-1.9901.199Zm.0888 1.7052c0 .6359-.0635 1.2641-.1906 1.8855l1.9594.4008c.1541-.7536.2312-1.516.2312-2.2863h-2Zm-.186 1.8643c-.2027.8916-.5553 1.5798-1.0313 2.1045l1.4815 1.3436c.7428-.819 1.2339-1.8339 1.5-3.0049l-1.9502-.4432Zm-.6701 1.8511c-.5436.2231-1.1182.3916-1.7252.5046l.3658 1.9662c.7367-.137 1.4434-.3435 2.1185-.6204l-.7591-1.8504Zm-1.7518.5099c-.5703.1222-1.2629.1888-2.0874.1888v2c.9255 0 1.7642-.0741 2.5064-.2332l-.419-1.9556Zm-2.0874.1888c-.7798 0-1.562-.0921-2.3481-.2779l-.46 1.9463c.9326.2205 1.8692.3316 2.8081.3316v-2Zm-2.3612-.2809c-.7845-.1744-1.0457-.3893-1.1044-.4676l-1.6 1.2c.5038.6717 1.3676 1.0193 2.2706 1.2199l.4338-1.9523Zm-.9165.2877.8437-5.3672-1.9757-.3106-.8438 5.3672 1.9758.3106Zm.8513-5.6174L44.1127 44.116l-1.991.1899 1.4063 14.7422 1.9909-.1899Zm-1.4018-14.6323.1172-7.8516-1.9998-.0298-.1172 7.8515 1.9998.0299Zm-.8827-8.8665h-.7266v2h.7266v-2Zm-1.7165.8586-1.1485 8.039 1.9799.2829 1.1485-8.0391-1.9799-.2828Zm-1.124 7.9198c-1.5272 5.6569-2.9132 10.002-4.1561 13.0555l1.8525.754c1.2883-3.1652 2.6992-7.6014 4.2345-13.2882l-1.9309-.5213Zm-4.121 13.8862c.4068.7991.7605 1.6952 1.0579 2.6917l1.9165-.572c-.3275-1.0972-.7239-2.1074-1.1921-3.0271l-1.7823.9074Zm1.0619 2.7048c.3077.9816.4949 1.9308.5667 2.8491l1.9939-.1558c-.0845-1.0817-.3035-2.1794-.6521-3.2915l-1.9085.5982Zm.874 2.0471c-.5127.4883-1.2583.9076-2.2942 1.2198l.5771 1.9149c1.2453-.3753 2.2966-.9248 3.0964-1.6865l-1.3793-1.4482Zm-2.2979 1.2209c-1.0234.3127-2.1196.472-3.2937.472v2c1.3571 0 2.6515-.1845 3.8781-.5593l-.5844-1.9127Zm-3.2937.472c-1.2043 0-2.2834-.1668-3.2463-.4878l-.6324 1.8974c1.1933.3978 2.4893.5904 3.8787.5904v-2Zm-3.2421-.4864c-.9453-.3197-1.5189-.7271-1.8431-1.1558l-1.5953 1.2062c.6446.8525 1.6179 1.4451 2.7976 1.8442l.6408-1.8946Zm-1.6419-.5033c.0713-1.4414.4274-2.8352 1.075-4.1879l-1.8039-.8636c-.7587 1.5847-1.1838 3.2378-1.2687 4.9526l1.9976.0989Zm1.1368-4.8865-4.1719-15.0703-1.9275.5336 4.1719 15.0703 1.9275-.5336Zm-4.1642-15.0408-1.7344-7.1016-1.9428.4746 1.7343 7.1015 1.9429-.4745Zm-2.8513-7.8537-.7969.1172.291 1.9787.7969-.1171-.291-1.9788Zm-1.6411 1.2496 1.1484 7.9454 1.9795-.2862-1.1485-7.9453-1.9794.2861Zm1.1384 7.7797c-.0623 2.7565-.1635 5.5601-.3037 8.411l1.9976.0982c.141-2.8679.2429-5.6892.3056-8.464l-1.9995-.0452Zm-.3037 8.411c-.1403 2.852-.2955 5.0975-.4647 6.7437l1.9895.2045c.1745-1.6975.3318-3.9833.4728-6.85l-1.9976-.0982Zm.53 7.846h.0235v-2h-.0235v2Zm-.9686-1.126c-.1053.8295-.3841 1.5462-.8295 2.1697l1.6275 1.1625c.6483-.9077 1.0414-1.941 1.1861-3.0803l-1.9841-.2519Zm-.8318 2.173c-.4366.6163-.9914 1.0955-1.6769 1.4447l.9078 1.7821c.9707-.4945 1.7753-1.1872 2.4012-2.0708l-1.6321-1.156Zm-1.6838 1.4483c-.6642.3449-1.3881.5203-2.1877.5203v2c1.1068 0 2.1485-.2464 3.1093-.7453l-.9216-1.775ZM15.9062 64c-1.1038 0-1.9954-.2368-2.7156-.6671-.7185-.4292-1.3266-1.0868-1.8092-2.0248l-1.77843.915c.62683 1.2183 1.47573 2.1779 2.56193 2.8268 1.0845.6478 2.3452.9501 3.7413.9501v-2Zm-4.419-2.3339c-.0301-.3016-.0419-.505-.0419-.627H9.44531c0 .2217.01951.5027.05184.826l1.99005-.199Zm47.5909-24.9083.9985.0555.0586-1.0555h-1.0571v1Zm-.0234 0-.136.9907.0677.0093h.0683v-1Zm-3.5859-.4922-.9435.3315.2024.5762.6051.083.136-.9907ZM55 34.3672l-.9881.1537.0005.0034.9876-.1571Zm-.0469-3.6797-.3185-.9479-.5915.1988-.0814.6186.9914.1305Zm7.4766-1.4766.111.9939.005-.0006-.116-.9933Zm14.9765.0235-.2131.977.0085.0018.2046-.9788Zm4.3126 2.4844-.7465.6655.0085.0094.738-.6749Zm.9374 9.1406.9162.4008.0018-.0042-.918-.3966ZM80.5 44.3984l-.7798-.626-.0011.0013.7809.6247Zm-2.7422 2.5313-.5287-.8488-2.2328 1.3909 2.5929.4436.1686-.9857Zm3.3047 1.2422-.5241.8516.0076.0047.0078.0046.5087-.8609Zm2.5078 2.5078-.8564.5163.0034.0057.853-.522Zm-3.2812 12.1406.5535.8328.0012-.0007-.5547-.8321Zm-16.336 2.5313.0526-.9987-.0101-.0004-.0425.9991Zm-4.0781-.375-.9833.1822.13.7009.705.1058.1483-.9889Zm12.3281-18.7969.0775.997.6469-.0503.2177-.6112-.9421-.3355Zm1.0313-4.3359-.9862-.1659-.0012.0072.9874.1587Zm.539-4.3126.9985.0563.0162-.2889-.1405-.253-.8742.4856Zm-1.1953-.3515-.1504.9886.0105.0016.0106.0014.1293-.9916Zm-4.5937-.0938-.0555-.9984-.9115.0506-.0324.9123.9994.0355Zm-.5625 9.4688-.9961-.089-.1054 1.1794 1.1804-.0935-.0789-.9969Zm2.3672-.1875-.0775-.997-.0015.0001.079.9969Zm4.0547 12.7969.1908.9816.1728-.0336.1508-.0905-.5144-.8575Zm1.0312-1.2657-.8898-.4563-.0047.0091-.0045.0093.899.4379Zm.7031-1.9922.9772.2125.0009-.0043-.9781-.2082Zm.2344-1.9687h1v-.1682l-.055-.1589-.945.3271Zm-7.8516-1.0078-.1017-.9948-.0112.0011-.0111.0014.124.9923ZM67.1172 53v-1h-.9797l-.0201.9795.9998.0205Zm-.0703 3.4219.9989.0454.0006-.0124.0003-.0125-.9998-.0205Zm-.0703 2.7187h-1v.8861l.8796.1067.1204-.9928Zm-7.1094-11.4844c0-4.7287.0703-8.3396.2094-10.8429l-1.9969-.111c-.1422 2.5593-.2125 6.214-.2125 10.9539h2Zm-.7891-11.8984h-.0234v2h.0234v-2Zm.1126.0093-3.586-.4922-.2719 1.9814 3.5859.4922.272-1.9814Zm-2.7785.167c-.1807-.5144-.3234-1.088-.4246-1.724l-1.9752.3142c.1176.739.2874 1.431.5129 2.0728l1.8869-.663Zm-.4241-1.7206c-.1021-.6565-.1522-1.2847-.1522-1.8854h-2c0 .7118.0594 1.443.176 2.1928l1.9762-.3074Zm-.1522-1.8854c0-.4488.0352-.9515.1087-1.5101l-1.9829-.261c-.0828.6289-.1258 1.22-.1258 1.7711h2Zm-.5642-.6927c1.8131-.6093 4.228-1.091 7.269-1.4306l-.222-1.9877c-3.1152.3479-5.6847.8506-7.6841 1.5225l.6371 1.8958Zm7.274-1.4312c3.0436-.3554 5.9422-.5323 8.6965-.5323v-2c-2.8395 0-5.8159.1824-8.9285.5458l.232 1.9865Zm8.6965-.5323c2.3426 0 4.322.1841 5.9509.5395l.4263-1.954c-1.8086-.3947-3.9386-.5855-6.3772-.5855v2Zm5.9594.5413c1.5117.3161 2.7585 1.0357 3.7707 2.171l1.4929-1.3309c-1.3003-1.4584-2.9285-2.3951-4.8543-2.7978l-.4093 1.9577Zm3.7792 2.1805c.9393 1.0268 1.4958 2.6554 1.4958 5.0672h2c0-2.6819-.6154-4.8814-2.0199-6.4171l-1.4759 1.3499Zm1.4958 5.0672c0 .8224-.2264 1.817-.7383 3.0018l1.8359.7933c.5818-1.3464.9024-2.6174.9024-3.7951h-2Zm-.7365 2.9977c-.5101 1.1658-1.1821 2.2702-2.0199 3.3138l1.5596 1.2521c.9434-1.1752 1.7089-2.4302 2.2926-3.7643l-1.8323-.8016Zm-2.021 3.3151c-.821 1.0263-1.6535 1.7861-2.49 2.3072l1.0575 1.6976c1.0696-.6664 2.0653-1.5942 2.9943-2.7554l-1.5618-1.2494Zm-2.1299 4.1417c1.0629.1818 2.0436.5508 2.9492 1.1081l1.0482-1.7033c-1.1256-.6927-2.348-1.1517-3.6602-1.3762l-.3372 1.9714Zm2.9646 1.1174c.8834.522 1.6019 1.2374 2.1601 2.1632l1.7128-1.0327c-.723-1.1991-1.6764-2.1556-2.8555-2.8524l-1.0174 1.7219Zm2.1635 2.1689c.5291.8645.8139 1.9193.8139 3.2045h2c0-1.5897-.3557-3.0193-1.1079-4.2485l-1.706 1.044Zm.8139 3.2045c0 1.7949-.3425 3.2837-.9858 4.5018l1.7686.934c.8254-1.5631 1.2172-3.3868 1.2172-5.4358h-2Zm-.9858 4.5018c-.6535 1.2376-1.5846 2.2626-2.811 3.0803l1.1094 1.6641c1.4923-.9949 2.655-2.2667 3.4702-3.8104l-1.7686-.934Zm-2.8099 3.0795c-2.4276 1.6137-5.9543 2.4813-10.6964 2.4813v2c4.9453 0 8.9187-.8981 11.8035-2.8157l-1.1071-1.6656Zm-10.6964 2.4813c-1.8934 0-3.5706-.0389-5.0334-.1159l-.1051 1.9973c1.5059.0792 3.2193.1186 5.1385.1186v-2Zm-5.0435-.1163c-1.4388-.0613-2.7624-.1834-3.9723-.3649l-.2966 1.9779c1.2901.1935 2.6853.3214 4.1839.3852l.085-1.9982Zm-3.1373.4418c-.6541-3.5288-.9911-9.2243-.9911-17.1381h-2c0 7.93.3348 13.7814 1.0245 17.5026l1.9666-.3645Zm12.2869-18.2791c.4337-1.2178.7896-2.7275 1.0765-4.5128l-1.9747-.3173c-.2755 1.7147-.6071 3.0956-.9859 4.1591l1.8841.671Zm1.0753-4.5056c.2998-1.7829.4859-3.2608.5514-4.4221l-1.9969-.1125c-.0596 1.0574-.2328 2.4546-.5268 4.2029l1.9723.3317Zm.4271-4.964c-.1557-.2803-.392-.4273-.517-.495-.1445-.0782-.2971-.1323-.4324-.1721-.2728-.0802-.6117-.141-.9907-.1904l-.2587 1.9832c.3397.0443.5594.089.685.126.064.0188.0706.0262.0452.0124-.0143-.0077-.0516-.0291-.0983-.0688-.0461-.0393-.1189-.1114-.1814-.224l1.7483-.9713Zm-1.919-.8545c-.7883-.12-1.7734-.1755-2.9395-.1755v2c1.1151 0 1.9893.0539 2.6386.1527l.3009-1.9772Zm-2.9395-.1755c-.3898 0-1.0159.025-1.8602.0719l.1109 1.9969c.8432-.0468 1.4203-.0688 1.7493-.0688v-2Zm-2.8041 1.0348c-.1245 3.502-.3111 6.64-.5592 9.4153l1.9921.178c.2519-2.8184.4404-5.993.5658-9.5222l-1.9987-.0711Zm.5158 10.5012 2.3672-.1875-.1579-1.9938-2.3672.1875.1579 1.9938Zm2.3657-.1874 2.4141-.1875-.1549-1.994-2.4141.1875.1549 1.994Zm1.1647 12.9639c1.3161 0 2.3381-.0531 3.0034-.1824l-.3817-1.9633c-.4597.0894-1.3127.1457-2.6217.1457v2Zm3.327-.3065c.6193-.3716 1.073-.9815 1.4158-1.6852l-1.798-.8759c-.2509.515-.4847.7489-.6467.8461l1.0289 1.715Zm1.4066-1.6668c.3549-.6921.6172-1.4389.7905-2.2361l-1.9544-.4249c-.1391.6403-.3456 1.2216-.6157 1.7483l1.7796.9127Zm.7914-2.2404c.1668-.7837.2563-1.5117.2563-2.1769h-2c0 .491-.0667 1.0756-.2125 1.7606l1.9562.4163Zm.2013-2.504c-.3033-.8762-1.1298-1.316-1.9258-1.5473-.8324-.2418-1.9202-.3443-3.2145-.3443v2c1.2213 0 2.0905.1005 2.6566.2649.6024.175.6158.3446.5937.2809l1.89-.6542Zm-5.1403-1.8916c-1.1048 0-2.3586.073-3.758.2161l.2035 1.9896c1.3506-.1381 2.5343-.2057 3.5545-.2057v-2Zm-3.7803.2186c-.3663.0458-.597.0626-.7197.0626v2c.2522 0 .5841-.0301.9678-.078l-.2481-1.9846Zm-1.7195 1.0421-.0703 3.4218 1.9996.0411.0703-3.4219-1.9996-.041Zm-.0695 3.397c-.0158.3483-.0316.7505-.0473 1.2062l1.9988.0689c.0155-.4505.031-.8451.0464-1.1843l-1.9979-.0908Zm-.0473 1.2062c-.0161.467-.024.9865-.024 1.5579h2c0-.5536.0077-1.0496.0228-1.489l-1.9988-.0689Zm.8556 2.5507c1.0773.1305 2.2431.1947 3.4954.1947v-2c-1.1853 0-2.2695-.0608-3.2547-.1802l-.2407 1.9855Zm3.4954.1947h.6796v-2h-.6796v2Z" fill="#000"/></svg>