<svg width="204" height="50" fill="none" xmlns="http://www.w3.org/2000/svg"><path d="M.445312 35.0391c0-.7188.101563-1.4532.304688-2.2032.203125-.7656.47656-1.3984.82031-1.8984l2.25.4219L6.35156 9.42188l-3.60937-.51563c-.29688-.78125-.44531-1.57812-.44531-2.39063 0-.82812.16406-1.67187.49218-2.53124.82813-.39063 2.24219-.70313 4.24219-.9375 2.01563-.25001 3.80465-.375 5.36715-.375 1.4532 0 3.2422.03124 5.3672.09374l.8203.375c.3438.96875.8125 2.63282 1.4063 4.99219.6094 2.34379 1.6406 6.48439 3.0937 12.42189.2344.9219.4922 1.9687.7735 3.1406.75-2.7187 1.6718-6.5625 2.7656-11.5312l.5859-2.55472h.1172l-3.8906-.65626c-.375-.875-.5625-1.81249-.5625-2.8125 0-.65624.0859-1.36718.2578-2.13281 1.5156-.48437 3.0938-.82812 4.7344-1.03125 1.6562-.20312 3.4609-.30468 5.414-.30468h.7735c.8281 0 2.0078.03124 3.5391.09374l.8203.375c1 3.62501 1.9531 8.02348 2.8593 13.19528.9219 5.1563 1.6172 9.8907 2.086 14.2032l.0703.5859c.0156.1094.0547.4844.1172 1.125.0625.625.0937 1.2266.0937 1.8047 0 .7031-.0703 1.3984-.2109 2.0859-.2344 1.0313-.6563 1.8828-1.2656 2.5547-.6094.25-1.25.4375-1.9219.5625-.6563.1406-1.4219.211-2.2969.211-.8594 0-1.7187-.1016-2.5781-.3047-.8438-.1875-1.4063-.4688-1.6875-.8438l.8437-5.3672-1.4062-14.7422.1172-7.8515h-.7266l-1.1484 8.039c-1.5313 5.6719-2.9297 10.0625-4.1953 13.1719.4375.8594.8125 1.8125 1.125 2.8594.3281 1.0469.5312 2.0703.6093 3.0703-.6562.625-1.5546 1.1094-2.6953 1.4531-1.125.3438-2.3203.5157-3.5859.5157-1.2969 0-2.4844-.1797-3.5625-.5391-1.0625-.3594-1.8359-.8594-2.3203-1.5.0781-1.5781.4687-3.1016 1.1718-4.5703l-4.1718-15.0703L12 10.6875l-.7969.1172 1.1485 7.9453c-.0625 2.7656-.1641 5.5781-.3047 8.4375-.1407 2.8594-.2969 5.125-.4688 6.7969h.0235c-.125.9844-.461 1.8594-1.0078 2.625-.5313.75-1.21099 1.3359-2.03911 1.7578-.8125.4219-1.69531.6328-2.64844.6328-2.5 0-4.30469-1.0781-5.414062-3.2344-.03125-.3125-.046876-.5547-.046876-.7265ZM46.7109 25.3828c0-2.7031.4532-5.1172 1.3594-7.2422.9063-2.125 2.3047-3.8047 4.1953-5.039 1.9063-1.25 4.2813-1.875 7.125-1.875 1.4844 0 2.9688.1796 4.4532.539 1.4843.3438 2.7421.9219 3.7734 1.7344.9531.7656 1.6406 1.7812 2.0625 3.0469.4375 1.25.6562 2.6406.6562 4.1719 0 1.0156-.0859 2.0546-.2578 3.1171-.1875.3125-.5547.7266-1.1015 1.2422-.5469.5-1.1875.9922-1.9219 1.4766-.7344.4844-1.4453.8594-2.1328 1.125-.6563.0469-1.336.0703-2.0391.0703-1.2344 0-2.4844-.0547-3.75-.1641-1.2656-.1093-2.375-.2343-3.3281-.375.125 1.3282.5312 2.4844 1.2187 3.4688.6875.9844 1.7813 1.4765 3.2813 1.4765.1406 0 .3672-.0156.6797-.0468.9531-.0938 2.0625-.3438 3.3281-.75 1.2813-.4219 2.5547-.9063 3.8203-1.4532.5938.5938 1.0313 1.1876 1.3125 1.7813.2813.5937.4766 1.4453.5859 2.5547-.4843.5625-1.2734 1.25-2.3671 2.0625-1.0782.8125-2.3985 1.5469-3.961 2.2031-1.5625.6406-3.1953.961-4.8984.961-2.5625 0-4.7578-.6172-6.5859-1.8516-1.8126-1.25-3.1876-2.9375-4.125-5.0625-.9219-2.1406-1.3829-4.5313-1.3829-7.1719Zm15.0938-5.3906c-.2188-.2344-.5859-.4141-1.1016-.5391-.5156-.1406-1.0547-.2109-1.6172-.2109-.4531 0-.914.039-1.3828.1172-.4531.0781-.7265.164-.8203.2578-.5312 1.0469-.8672 2.2344-1.0078 3.5625l6.2578-.6094-.3281-2.5781Zm11.4141-1.1953c-.2657-1.1407-.4376-1.9766-.5157-2.5078-.0781-.5313-.1172-1.336-.1172-2.4141.9219-.875 1.9141-1.5312 2.9766-1.9688 1.0625-.4531 2.2578-.6796 3.5859-.6796 4.0313 0 6.0469 2.0234 6.0469 6.0703 0 1.0781-.1015 2.3281-.3047 3.75-.1875 1.4219-.4609 3.2109-.8203 5.3672-.0469.2812-.1719 1.039-.375 2.2734-.2031 1.2344-.3437 2.2656-.4219 3.0937.2657.2813.5938.4766.9844.586.1875 0 .6172-.3828 1.2891-1.1484.6875-.7813 1.4219-1.7266 2.2031-2.836.7812-1.1094 1.4219-2.1328 1.9219-3.0703.125-2.2344.2969-4.2891.5156-6.1641l-2.4609-.4922c-.2032-.7812-.3438-1.4687-.4219-2.0624-.0781-.5938-.1172-1.2266-.1172-1.8985l.0234-.6562c.5625-.7188 1.4063-1.3672 2.5313-1.9453 1.125-.5782 2.414-.8672 3.8672-.8672 4.0312 0 6.0468 2.0234 6.0468 6.0703 0 1.6406-.2734 3.8047-.8203 6.4922-.5468 2.6718-1.1875 5.375-1.9218 8.1093l2.6953-1.1718c.4526.4843.8516 1.0781 1.1956 1.7812.359.6875.586 1.4844.679 2.3906-.218.4688-.695 1.0704-1.429 1.8047-.7347.7188-1.6331 1.3594-2.6956 1.9219-1.0625.5625-2.1719.8438-3.3282.8438-1.2968 0-2.2968-.3829-3-1.1485C90.3438 37.5391 90 36.5469 90 35.3438c0-.3126.0781-.9532.2344-1.9219.1718-.9688.3125-1.6407.4218-2.0157L90 31.1953c-.7812 2.7344-1.8594 4.7969-3.2344 6.1875-1.3594 1.3906-2.914 2.086-4.664 2.086-2.5157 0-4.2891-.8282-5.3204-2.4844-1.0312-1.6719-1.5468-3.7422-1.5468-6.211 0-4.6406.1562-8.5156.4687-11.625l-2.4843-.3515Z" fill="#000"/><path d="M105.586 21.6562c0-4.7343.07-8.3671.211-10.8984h-.024l-3.585-.4922c-.204-.5781-.36-1.21091-.469-1.89841-.11-.70313-.164-1.38281-.164-2.03907 0-.49999.039-1.04687.117-1.64062 1.906-.64062 4.398-1.13281 7.476-1.47656 3.079-.35938 6.016-.53906 8.813-.53906 2.391 0 4.445.1875 6.164.5625 1.719.35937 3.156 1.1875 4.313 2.48437 1.171 1.28125 1.757 3.19531 1.757 5.74215 0 1-.273 2.1329-.82 3.3985-.547 1.25-1.266 2.4297-2.156 3.539-.875 1.0938-1.789 1.9375-2.742 2.5313 1.187.2031 2.289.6172 3.304 1.2422 1.031.6093 1.867 1.4453 2.508 2.5078.641 1.0469.961 2.2891.961 3.7265 0 1.9219-.367 3.5782-1.102 4.9688-.734 1.3906-1.781 2.5391-3.14 3.4453-2.656 1.7656-6.406 2.6485-11.25 2.6485-1.906 0-3.602-.0391-5.086-.1172-1.469-.0625-2.828-.1875-4.078-.375-.672-3.625-1.008-9.3985-1.008-17.3204Zm13.336-1.4765c.406-1.1406.75-2.5859 1.031-4.3359.297-1.7657.477-3.2032.539-4.3126-.078-.1406-.476-.2578-1.195-.3515-.719-.1094-1.649-.1641-2.789-.1641-.36 0-.961.0235-1.805.0703-.125 3.5157-.312 6.6719-.562 9.4688l2.367-.1875 2.414-.1875Zm-1.172 13.1484c1.312 0 2.25-.0547 2.812-.164.391-.2344.735-.6563 1.032-1.2657.312-.6093.547-1.2734.703-1.9922.156-.7343.234-1.3906.234-1.9687-.281-.8125-1.679-1.2187-4.195-1.2187-1.063 0-2.281.0703-3.656.2109-.375.0469-.657.0703-.844.0703l-.07 3.4219c-.016.3437-.032.7422-.047 1.1953-.016.4531-.024.9609-.024 1.5234 1.032.125 2.157.1875 3.375.1875h.68Zm15.773-24.98435c-.234-.95313-.39-1.74219-.468-2.36719-.078-.64062-.11-1.375-.094-2.20312.328-.42188.836-.84375 1.523-1.26563.704-.4375 1.516-.80468 2.438-1.10156.937-.29688 1.906-.445312 2.906-.445312 1.953 0 3.453.492182 4.5 1.476562 1.047.98438 1.57 2.4375 1.57 4.35938 0 1.375-.117 3.58592-.351 6.63282-.235 3.0469-.57 6.2891-1.008 9.7265-.437 3.4219-.937 6.4141-1.5 8.9766l.047.0469 3.469-1.4531c1.218 1.0468 1.929 2.4375 2.133 4.1718 0 .1094-.352.5625-1.055 1.3594-.703.7813-1.633 1.5156-2.789 2.2031-1.141.6719-2.453 1.0079-3.938 1.0079-1.547 0-2.804-.4297-3.773-1.2891-.953-.8594-1.406-2.3281-1.36-4.4063l.047-4.2187c.016-4 .055-7.6016.118-10.8047.078-3.2031.234-6.5078.468-9.91406l-2.883-.49219Zm17.063 16.80465c0-2.8281.453-5.2812 1.359-7.3593.907-2.0782 2.297-3.6875 4.172-4.8282 1.875-1.1562 4.227-1.7343 7.055-1.7343 3.125 0 5.578.5859 7.359 1.7578 1.781 1.1562 3.024 2.7656 3.727 4.8281.719 2.0625 1.078 4.5859 1.078 7.5703 0 2.7031-.477 5.1172-1.43 7.2422-.937 2.1094-2.359 3.7812-4.265 5.0156-1.891 1.2188-4.211 1.8282-6.961 1.8282-4.25 0-7.328-1.3047-9.235-3.9141-1.906-2.625-2.859-6.0938-2.859-10.4063Zm13.055 7.4532c.797 0 1.281-.0625 1.453-.1875.359-.625.633-1.5079.82-2.6485.188-1.1406.281-2.375.281-3.7031 0-1.2187-.078-2.3594-.234-3.4219-.156-1.0781-.375-1.9218-.656-2.5312-.172-.2032-.516-.3516-1.032-.4453-.515-.1094-1.078-.1641-1.687-.1641-.797 0-1.344.0859-1.641.2578-.781 1.3438-1.172 3.211-1.172 5.6016 0 1.125.086 2.2734.258 3.4453.172 1.1719.391 2.2344.657 3.1875.187.2031.57.3594 1.148.4687.578.0938 1.18.1407 1.805.1407Zm28.57 10.125c1.047 0 1.953-.1172 2.719-.3516.234-.2344.398-.5078.492-.8203.094-.2969.14-.5781.14-.8438 0-.2812-.023-.4921-.07-.6328-.047-.125-.125-.2422-.234-.3515-.656-.1094-1.43-.1875-2.32-.2344-.876-.0313-1.399-.0547-1.571-.0703-2.172-.0938-3.937-.25-5.297-.4688-1.359-.2343-2.523-.7343-3.492-1.5-.969-.7812-1.453-1.9531-1.453-3.5156 0-.8437.273-1.6328.82-2.3672.547-.75 1.258-1.4062 2.133-1.9687-1.781-.7344-3.211-1.836-4.289-3.3047-1.062-1.4844-1.594-3.3985-1.594-5.7422 0-2.3281.594-4.1953 1.782-5.6016 1.203-1.4219 2.679-2.4219 4.429-3 1.75-.5781 3.532-.8672 5.344-.8672 1.141 0 2.258.1094 3.352.3282 1.093.2187 2.109.5312 3.046.9375l-1.007-5.95316c.953-.57813 2.14-.86719 3.562-.86719 1.031 0 1.992.17187 2.883.51563.891.34375 1.57.83593 2.039 1.47656.031.15625.047.40625.047.75 0 1.28125-.234 2.71096-.703 4.28906-.453 1.5625-1.242 2.8203-2.367 3.7734.562 1.125.843 2.336.843 3.6329 0 1.9062-.367 3.664-1.101 5.2734-.719 1.6094-1.922 2.9219-3.61 3.9375-1.687 1-3.882 1.5-6.586 1.5-.781 0-1.593-.0469-2.437-.1406-.047.7812.141 1.5625.562 2.3437 2.11-.4062 3.813-.6172 5.11-.6328l1.594-.0234c2.156 0 3.789.1328 4.898.3984 1.219.2969 2.125.9688 2.719 2.0156.609 1.0469.914 2.3203.914 3.8203 0 2.3438-.719 4.3125-2.156 5.9063-1.422 1.6094-3.274 2.8047-5.555 3.5859-2.266.7813-4.672 1.1719-7.219 1.1719-2.359 0-4.461-.3984-6.305-1.1953-1.843-.7969-3.007-2.2578-3.492-4.3828.516-1.7969 1.5-3.1563 2.953-4.0781 1.954 1.1718 3.821 2.0078 5.602 2.5078 1.797.5 3.422.75 4.875.75Zm-1.43-17.836c1.125 0 1.781-.0703 1.969-.2109.422-.8438.633-1.7109.633-2.6016 0-.9219-.211-1.789-.633-2.6015-.203-.1719-.656-.3047-1.359-.3985-.688-.0937-1.438-.1406-2.25-.1406-1.016 0-1.696.0625-2.039.1875-.485.8594-.727 1.7266-.727 2.6016 0 .8906.227 1.7343.68 2.5312.343.2188.859.3828 1.547.4922.703.0938 1.429.1406 2.179.1406Z" fill="#fff"/><path d="m.75 32.8359.96524.2615.00132-.005L.75 32.8359Zm.82031-1.8984.18429-.9829-.63964-.1199-.368689.5363.824039.5665Zm2.25.4219-.18429.9828 1.0547.1978.123-1.066-.99341-.1146ZM6.35156 9.42188l.99341.11462.11157-.96692-.96356-.13765-.14142.98995Zm-3.60937-.51563-.93479.35522.20951.55132.58386.08341.14142-.98995Zm.04687-4.92187-.42662-.90444-.36403.17172-.14357.37601.93422.35671Zm4.24219-.9375.11639.99322.0067-.00083-.12309-.99239Zm10.73435-.28126.4158-.90947-.1841-.08414-.2023-.00595-.0294.99956Zm.8203.375.9425-.3344-.1416-.39903-.3851-.17604-.4158.90947Zm1.4063 4.99219-.9698.24406.002.00758.9678-.25164Zm3.0937 12.42189-.9713.2377.0022.0087.9691-.2464Zm.7735 3.1406-.9724.2334 1.9364.0325-.964-.2659Zm2.7656-11.5312-.9747-.2236-.0019.0086.9766.215Zm.5859-2.55472v-1h-.7966l-.1781.77644.9747.22356Zm.1172 0v1.00002l.1664-1.9861-.1664.98608Zm-3.8906-.65626-.9191.39392.2148.50142.538.09074.1663-.98608Zm-.3047-4.94531-.3044-.95254-.5458.17443-.1255.55907.9757.21904Zm4.7344-1.03125-.1217-.99256-.0012.00014.1229.99242Zm9.7266-.21094.4157-.90947-.1787-.08168-.1963-.00801-.0407.99916Zm.8203.375.964-.26592-.1241-.44963-.4242-.19392-.4157.90947Zm2.8593 13.19528-.985.1726.0006.0034.9844-.176Zm2.086 14.2032-.9942.108.0013.0111.9929-.1191Zm.0703.5859-.9929.1191.0013.0112.0016.0111.99-.1414Zm.1172 1.125-.9953.0971.0002.0024.9951-.0995Zm-.1172 3.8906.9751.2216.0024-.0105.0022-.0107-.9797-.2004Zm-1.2656 2.5547.3795.9252.2092-.0859.152-.1675-.7407-.6718Zm-1.9219.5625-.1829-.9831-.0134.0025-.0132.0028.2095.9778Zm-4.875-.0937.23-.9733-.0131-.0029-.2169.9762Zm-1.6875-.8438-.9879-.1553-.0656.4173.2535.338.8-.6Zm.8437-5.3672.9879.1553.0196-.1246-.012-.1256-.9955.0949Zm-1.4062-14.7422-.9999-.0149-.0008.0551.0052.0548.9955-.095Zm.1172-7.8515.9999.0149.0151-1.01492h-1.015v1.00002Zm-.7266 0V9.35938h-.8673l-.1226.85862.9899.1414Zm-1.1484 8.039.9654.2607.0159-.0589.0086-.0603-.9899-.1415Zm-4.1953 13.1719-.9263-.377-.1723.4234.2074.4073.8912-.4537Zm1.125 2.8594-.9583.286.004.0131.9543-.2991Zm.6093 3.0703.6897.7241.3443-.3279-.037-.4741-.997.0779Zm-2.6953 1.4531-.2885-.9574-.0037.0011.2922.9563Zm-7.1484-.0234-.3204.9473.0042.0014.3162-.9487Zm-2.3203-1.5-.9988-.0495-.018.3628.2191.2898.7977-.6031Zm1.1718-4.5703.902.4318.1617-.3378-.0999-.3608-.9638.2668Zm-4.1718-15.0703-.9715.2372.0036.0148.0041.0148.9638-.2668ZM12 10.6875l.9714-.2373-.216-.88454-.9009.13248.1455.98936Zm-.7969.1172-.1455-.98937-.9869.14513.1427.98724.9897-.143Zm1.1485 7.9453.9997.0226.0019-.0832-.0119-.0825-.9897.1431Zm-.7735 15.2344-.9947-.1023-.1133 1.1023h1.108v-1Zm.0235 0 .992.1259.143-1.1259h-1.135v1Zm-1.0078 2.625-.81379-.5813-.00228.0033.81607.578Zm-2.03911 1.7578-.45394-.8911-.00688.0036.46082.8875ZM.492188 35.7656l-.995038.0995.018905.1891.08692.1689.889213-.4575Zm.953122-.7265c0-.6237.08801-1.2701.26992-1.9417l-1.930456-.5229c-.224349.8284-.339462 1.6507-.339462 2.4646H1.44531Zm.27125-1.9467c.18223-.6869.41539-1.2067.67779-1.5884L.746271 30.371c-.425095.6183-.7388076 1.3641-.962833 2.2085l1.933122.5129Zm-.33054-1.172 2.25.4218.36858-1.9657-2.25-.4219-.36858 1.9658Zm3.4277-.4464L7.34497 9.5365l-1.98682-.22925L2.8269 31.2448l1.98682.2292ZM6.49298 8.43193 2.88361 7.9163l-.28284 1.9799 3.60937.5156.28284-1.97987Zm-2.81601.1191c-.25501-.67109-.38009-1.34777-.38009-2.03541h-2c0 .93737.17179 1.85444.51052 2.74585l1.86957-.71044Zm-.38009-2.03541c0-.69342.13696-1.41648.4264-2.17454l-1.86844-.71341c-.3668.96069-.55796 1.92513-.55796 2.88795h2Zm-.0812-1.62681c.66946-.31579 1.94205-.61554 3.93196-.84873l-.23278-1.98641c-2.01009.23556-3.56562.56081-4.55242 1.02627l.85324 1.80887Zm3.93866-.84954c1.98616-.24635 3.73276-.36739 5.24406-.36739v-2c-1.6137 0-3.44515.12895-5.49024.3826l.24618 1.98479Zm5.24406-.36739c1.44 0 3.2186.03098 5.3378.09331l.0588-1.99913c-2.1307-.06267-3.9303-.09418-5.3966-.09418v2Zm4.9515.00322.8203.375.8315-1.81895-.8203-.375-.8315 1.81895Zm.2936-.20007c.3264.91985.7853 2.54312 1.3789 4.90183l1.9396-.48809c-.594-2.36004-1.0725-4.0649-1.4336-5.08255l-1.8849.66881Zm1.3809 4.90942c.6073 2.33595 1.637 6.47025 3.0902 12.40795l1.9427-.4754c-1.4531-5.9373-2.4859-10.0843-3.0973-12.43582l-1.9356.50327Zm3.0924 12.41665c.233.9166.4897 1.959.7702 3.1276l1.9448-.4668c-.2821-1.1751-.541-2.2264-.7767-3.1536l-1.9383.4928Zm2.7066 3.1601c.7569-2.7439 1.6832-6.6075 2.7782-11.5822l-1.9532-.4299c-1.0925 4.9629-2.01 8.7867-2.753 11.4803l1.928.5318Zm2.7763-11.5736.5859-2.55467-1.9494-.44711-.5859 2.55468 1.9494.4471Zm-.3888-1.7782h.1172V8.60938h-.1172v2.00002Zm.2836-1.9861-3.8907-.65625-.3326 1.97215 3.8906.6562.3327-1.9721Zm-3.1379-.06409c-.3189-.74429-.4816-1.54705-.4816-2.41859h-2c0 1.12847.2123 2.20071.6434 3.20642l1.8382-.78783Zm-.4816-2.41859c0-.5699.0748-1.20653.2335-1.91377l-1.9514-.43808c-.185.82401-.2821 1.60926-.2821 2.35185h2Zm-.4378-1.18027c1.4543-.46475 2.9715-.79557 4.5529-.99136l-.2458-1.98485c-1.6998.21046-3.3389.56714-4.9159 1.07113l.6088 1.90508Zm4.5517-.99122c1.6098-.19743 3.3733-.29725 5.2923-.29725v-2c-1.9871 0-3.833.10329-5.5357.31212l.2434 1.98513Zm5.2923-.29725h.7735v-2h-.7735v2Zm.7735 0c.8076 0 1.9713.03059 3.4983.09291l.0815-1.99833c-1.5355-.06268-2.7312-.09458-3.5798-.09458v2Zm3.1233.00322.8203.375.8315-1.81895-.8203-.375-.8315 1.81895Zm.2721-.26855c.9889 3.5849 1.9356 7.95025 2.8383 13.10195l1.97-.3452c-.9098-5.192-1.8693-9.6235-2.8803-13.2886l-1.928.53185ZM40.289 16.5119c.9187 5.1382 1.6104 9.8496 2.0762 14.1352l1.9883-.2161c-.4716-4.3393-1.1706-9.0967-2.0957-14.2711l-1.9688.352Zm2.0775 14.1463.0703.5859 1.9858-.2382-.0703-.586-1.9858.2383Zm.0732.6082c.0116.0812.0481.4265.1119 1.0807l1.9905-.1942c-.0611-.6271-.1028-1.0317-.1225-1.1693l-1.9799.2828Zm.1121 1.0831c.0595.5947.0888 1.163.0888 1.7052h2c0-.6141-.0332-1.2489-.0987-1.9042l-1.9901.199Zm.0888 1.7052c0 .6359-.0635 1.2641-.1906 1.8855l1.9594.4008c.1541-.7536.2312-1.516.2312-2.2863h-2Zm-.186 1.8643c-.2027.8916-.5553 1.5798-1.0313 2.1045l1.4815 1.3436c.7428-.819 1.2339-1.8339 1.5-3.0049l-1.9502-.4432Zm-.6701 1.8511c-.5436.2231-1.1182.3916-1.7252.5046l.3658 1.9662c.7367-.137 1.4434-.3435 2.1185-.6204l-.7591-1.8504Zm-1.7518.5099c-.5703.1222-1.2629.1888-2.0874.1888v2c.9255 0 1.7642-.0741 2.5064-.2332l-.419-1.9556Zm-2.0874.1888c-.7798 0-1.562-.0921-2.3481-.2779l-.46 1.9463c.9326.2205 1.8692.3316 2.8081.3316v-2Zm-2.3612-.2809c-.7845-.1744-1.0457-.3893-1.1044-.4676l-1.6 1.2c.5038.6717 1.3676 1.0193 2.2706 1.2199l.4338-1.9523Zm-.9165.2877.8437-5.3672-1.9757-.3106-.8438 5.3672 1.9758.3106Zm.8513-5.6174L34.1127 18.116l-1.991.1899 1.4063 14.7422 1.9909-.1899Zm-1.4018-14.6323.1172-7.8516-1.9998-.0298-.1172 7.8515 1.9998.0299Zm-.8827-8.86652h-.7266v2.00002h.7266V9.35938Zm-1.7165.85862-1.1485 8.039 1.9799.2829 1.1485-8.0391-1.9799-.2828Zm-1.124 7.9198c-1.5272 5.6569-2.9132 10.002-4.1561 13.0555l1.8525.754c1.2883-3.1652 2.6992-7.6014 4.2345-13.2882l-1.9309-.5213Zm-4.121 13.8862c.4068.7991.7605 1.6952 1.0579 2.6917l1.9165-.572c-.3275-1.0972-.7239-2.1074-1.1921-3.0271l-1.7823.9074Zm1.0619 2.7048c.3077.9816.4949 1.9308.5667 2.8491l1.9939-.1558c-.0845-1.0817-.3035-2.1794-.6521-3.2915l-1.9085.5982Zm.874 2.0471c-.5127.4883-1.2583.9076-2.2942 1.2198l.5771 1.9149c1.2453-.3753 2.2966-.9248 3.0964-1.6865l-1.3793-1.4482Zm-2.2979 1.2209c-1.0234.3127-2.1196.472-3.2937.472v2c1.3571 0 2.6515-.1845 3.8781-.5593l-.5844-1.9127Zm-3.2937.472c-1.2043 0-2.2834-.1668-3.2463-.4878l-.6324 1.8974c1.1933.3978 2.4893.5904 3.8787.5904v-2Zm-3.2421-.4864c-.9453-.3197-1.5189-.7271-1.8431-1.1558l-1.5953 1.2062c.6446.8525 1.6179 1.4451 2.7976 1.8442l.6408-1.8946Zm-1.6419-.5033c.0713-1.4414.4274-2.8352 1.075-4.1879l-1.8039-.8636c-.7587 1.5847-1.1838 3.2378-1.2687 4.9526l1.9976.0989Zm1.1368-4.8865-4.1719-15.0703-1.9275.5336 4.1719 15.0703 1.9275-.5336Zm-4.1642-15.0408-1.7344-7.1016-1.9428.4746 1.7343 7.1015 1.9429-.4745Zm-2.8513-7.85366-.7969.11719.291 1.97867.7969-.1171-.291-1.97876Zm-1.6411 1.24956 1.1484 7.9454 1.9795-.2862-1.1485-7.9453-1.9794.2861Zm1.1384 7.7797c-.0623 2.7565-.1635 5.5601-.3037 8.411l1.9976.0982c.141-2.8679.2429-5.6892.3056-8.464l-1.9995-.0452Zm-.3037 8.411c-.1403 2.852-.2955 5.0975-.4647 6.7437l1.9895.2045c.1745-1.6975.3318-3.9833.4728-6.85l-1.9976-.0982Zm.53 7.846h.0235v-2h-.0235v2Zm-.9686-1.126c-.1053.8295-.3841 1.5462-.82948 2.1697l1.62748 1.1625c.6483-.9077 1.0414-1.941 1.1861-3.0803l-1.9841-.2519Zm-.83177 2.173c-.43659.6163-.99142 1.0955-1.67697 1.4447l.90785 1.7821c.9707-.4945 1.77529-1.1872 2.40119-2.0708l-1.63207-1.156Zm-1.68386 1.4483C7.42966 37.8246 6.70579 38 5.90625 38v2c1.10671 0 2.14847-.2464 3.10925-.7453l-.92163-1.775ZM5.90625 38c-1.10381 0-1.99544-.2368-2.71566-.6671-.71848-.4292-1.32662-1.0868-1.80919-2.0248l-1.778425.915c.626808 1.2183 1.475695 2.1779 2.561905 2.8268C3.24935 39.6977 4.51006 40 5.90625 40v-2Zm-4.41903-2.3339c-.03016-.3016-.04191-.505-.04191-.627H-.554688c0 .2217.019504.5027.051838.826l1.99007-.199ZM52.2656 13.1016l.5467.8373.0017-.0011-.5484-.8362Zm11.5782-1.336-.2354.972.0097.0022.2257-.9742ZM67.6172 13.5l.6263-.7797-.0074-.0058-.6189.7855Zm2.0625 3.0469-.9487.3162.0024.0071.0024.007.9439-.3303Zm.3984 7.289.8575.5145.099-.1649.0307-.1899-.9872-.1597Zm-1.1015 1.2422.6747.7381.0057-.0052.0056-.0053-.686-.7276Zm-4.0547 2.6016.0712.9974.1494-.0106.1398-.054-.3604-.9328Zm-9.1172-.4688.1459-.9893-1.261-.186.1195 1.269.9956-.0937Zm5.1797 4.8985-.0979-.9952-.0016.0001.0995.9951Zm3.3281-.75.3056.9522.0072-.0024-.3128-.9498Zm3.8203-1.4532.7071-.7071-.4803-.4802-.6234.2694.3966.9179Zm1.8984 4.336.7578.6525.2794-.3245-.042-.4261-.9952.0981Zm-2.3671 2.0625-.5964-.8028-.0055.0042.6019.7986Zm-3.961 2.2031.3794.9253.0079-.0033-.3873-.922Zm-11.4843-.8906-.5678.8232.0082.0056.5596-.8288Zm-4.125-5.0625-.9185.3955.0035.0081.915-.4036Zm13.7109-12.5625.992-.1263-.0408-.3201-.2202-.2359-.731.6823Zm-1.1016-.5391-.2631.9648.0137.0037.0138.0034.2356-.9719Zm-3-.0937-.1644-.9864-.0055.0009.1699.9855Zm-.8203.2578-.7071-.7071-.1126.1126-.072.142.8917.4525Zm-1.0078 3.5625-.9944-.1053-.1292 1.2194 1.2205-.1188-.0969-.9953Zm6.2578-.6094.0969.9953 1.0251-.0998-.13-1.0217-.992.1262Zm-14.4219 2.8125c0-2.5909.4341-4.8682 1.2793-6.8499l-1.8397-.7846c-.9674 2.2683-1.4396 4.8192-1.4396 7.6345h2Zm1.2793-6.8499c.8305-1.9475 2.1012-3.4704 3.8221-4.594l-1.0934-1.6747c-2.0603 1.3452-3.5865 3.1816-4.5684 5.4841l1.8397.7846Zm3.8238-4.5951c1.7072-1.1195 3.8795-1.7112 6.5766-1.7112v-2c-2.9903 0-5.568.6582-7.6733 2.0387l1.0967 1.6725Zm6.5766-1.7112c1.4029 0 2.8083.1697 4.2178.5109l.4707-1.9438c-1.5592-.3775-3.1226-.5671-4.6885-.5671v2Zm4.2275.5132c1.364.3159 2.4817.8378 3.3802 1.5457l1.2378-1.571c-1.1641-.9171-2.5619-1.5514-4.1667-1.9231l-.4513 1.9484Zm3.3728 1.5398c.7898.6344 1.3732 1.4828 1.7401 2.5835l1.8974-.6325c-.4769-1.4305-1.2685-2.6134-2.385-3.5102l-1.2525 1.5592Zm1.7449 2.5976c.3951 1.1287.6001 2.4055.6001 3.8416h2c0-1.6265-.2324-3.131-.7124-4.5023l-1.8877.6607Zm.6001 3.8416c0 .959-.0811 1.9446-.2449 2.9574l1.9743.3194c.1799-1.1122.2706-2.2047.2706-3.2768h-2Zm-.1153 2.6026c-.113.1883-.3949.5245-.9301 1.0291l1.3721 1.4552c.5585-.5266 1.011-1.0186 1.273-1.4553l-1.715-1.029Zm-.9188 1.0187c-.5017.4587-1.0993.9192-1.7977 1.3798l1.1012 1.6696c.7704-.5082 1.454-1.032 2.046-1.5733l-1.3495-1.4761Zm-1.7977 1.3798c-.6858.4523-1.3332.7915-1.9426 1.027l.7208 1.8656c.7656-.2958 1.54-.7066 2.323-1.223l-1.1012-1.6696Zm-1.6535.9623c-.631.0451-1.2868.0678-1.9678.0678v2c.7253 0 1.4288-.0242 2.1103-.0729l-.1425-1.9949Zm-1.9678.0678c-1.2048 0-2.4261-.0534-3.6639-.1603l-.1722 1.9925c1.2934.1118 2.5722.1678 3.8361.1678v-2Zm-3.6639-.1603c-1.2515-.1082-2.3401-.2311-3.2683-.3681l-.2919 1.9786c.9781.1443 2.1083.2714 3.388.382l.1722-1.9925Zm-4.4098.7149c.1393 1.4808.5973 2.8063 1.3945 3.9477l1.6397-1.1452c-.5779-.8274-.9324-1.8143-1.043-2.9899l-1.9912.1874Zm1.3945 3.9477c.9215 1.3194 2.3659 1.9039 4.1011 1.9039v-2c-1.2649 0-2.0079-.3997-2.4614-1.0491l-1.6397 1.1452Zm4.1011 1.9039c.1944 0 .4637-.0202.7792-.0518l-.199-1.9901c-.3095.031-.4934.0419-.5802.0419v2Zm.7776-.0516c1.0449-.1028 2.2266-.3728 3.5358-.7931l-.6112-1.9043c-1.222.3923-2.2591.6223-3.1204.707l.1958 1.9904Zm3.543-.7954c1.3102-.4314 2.6117-.9265 3.9042-1.485l-.7933-1.8359c-1.2388.5352-2.4842 1.0089-3.7365 1.4212l.6256 1.8997Zm2.8004-1.6958c.5342.5341.8952 1.0363 1.1159 1.5022l1.8075-.8562c-.3419-.7216-.8558-1.4069-1.5092-2.0603l-1.4142 1.4143Zm1.1159 1.5022c.2094.442.3897 1.1616.4945 2.2247l1.9903-.1962c-.1139-1.1556-.3242-2.1392-.6773-2.8847l-1.8075.8562Zm.7319 1.4741c-.4119.4783-1.1308 1.1137-2.2058 1.9122l1.1927 1.6055c1.1126-.8265 1.9717-1.566 2.5286-2.2127l-1.5155-1.305Zm-2.2113 1.9164c-.9977.7519-2.2417 1.4478-3.7463 2.0797l.7745 1.844c1.6203-.6806 3.0169-1.4534 4.1755-2.3265l-1.2037-1.5972Zm-3.7384 2.0765c-1.4411.5908-2.945.8862-4.5191.8862v2c1.8321 0 3.5938-.3453 5.2778-1.0357l-.7587-1.8505Zm-4.5191.8862c-2.3962 0-4.389-.5748-6.0264-1.6804l-1.1191 1.6576c2.0188 1.3631 4.4167 2.0228 7.1455 2.0228v-2Zm-6.0182-1.6748c-1.6517-1.1391-2.9107-2.6775-3.7778-4.643l-1.8299.8073c1.0079 2.2846 2.4989 4.1212 4.4722 5.4821l1.1355-1.6464Zm-3.7743-4.6348c-.8614-2.0002-1.3013-4.2537-1.3013-6.7764h-2c0 2.7586.482 5.2863 1.4644 7.5674l1.8369-.791Zm13.5235-12.8493c-.4134-.443-1.0034-.6847-1.597-.8286l-.4712 1.9437c.4377.1061.5821.2237.6061.2495l1.4621-1.3646Zm-1.5695-.8215c-.6057-.1652-1.2335-.2462-1.8803-.2462v2c.4783 0 .9286.0596 1.3541.1757l.5262-1.9295Zm-1.8803-.2462c-.5108 0-1.0267.044-1.5472.1308l.3288 1.9728c.4171-.0695.823-.1036 1.2184-.1036v-2Zm-1.5527.1317c-.2477.0427-.478.0927-.6748.1545-.1513.0476-.4508.1498-.6827.3817l1.4142 1.4142c-.0457.0458-.0864.0753-.1115.092-.0258.017-.0446.0266-.052.0303-.0131.0064-.0063.0017.0316-.0102.0767-.0241.2096-.0561.415-.0916l-.3398-1.9709Zm-1.5421.7908c-.5934 1.1692-.9588 2.477-1.1105 3.9097l1.9888.2106c.1296-1.2236.436-2.2908.9052-3.2153l-1.7835-.905Zm-.0192 5.0103 6.2578-.6094-.1938-1.9906-6.2578.6094.1938 1.9906Zm7.1529-1.7309-.3281-2.5782-1.984.2525.3281 2.5782 1.984-.2525Zm10.094-3.6472-.974.2268.1554.6673.6784.096.1402-.9901Zm-.6329-4.9219-.6884-.7253-.3116.2957v.4296h1Zm2.9766-1.9688.3808.9248.0115-.0049-.3923-.9199Zm9.3281 9.1407-.99-.1415-.0014.0107.9914.1308Zm-1.6172 10.7343-.9955-.0939-.0426.4511.3111.3295.727-.6867Zm.9844.586-.2696.963.1323.037h.1373v-1Zm1.2891-1.1484-.7507-.6607-.001.0011.7517.6596Zm4.125-5.9063.8823.4706.1038-.1946.0123-.2201-.9984-.0559Zm.5156-6.1641.9933.1159.1068-.9156-.904-.1808-.1961.9805Zm-2.4609-.4922-.9679.2517.1576.6061.6141.1228.1962-.9806Zm-.5391-3.9609-.9994-.0357-.0006.0179v.0178h1Zm.0234-.6562-.7875-.6163-.2002.2558-.0116.3248.9993.0357Zm11.625 9.75.9797.2005.0003-.0011-.98-.1994Zm-1.9218 8.1093-.9658-.2593-.5381 2.0036 1.9026-.8272-.3987-.9171Zm2.6953-1.1718.7306-.6832-.4823-.5152-.6471.2813.3988.9171Zm1.1956 1.7812-.8987.4392.0059.0121.0063.012.8865-.4633Zm.679 2.3906.907.4229.117-.2506-.029-.2752-.995.1029Zm-1.429 1.8047.699.7147.008-.0076-.707-.7071Zm-9.0238 1.6172-.7507.6606.007.008.0072.0078.7365-.6764Zm-.7968-4.8984-.9846-.1747-.0014.0077-.0013.0077.9873.1593Zm.4218-2.0157.9601.2801.2724-.9343-.9264-.2978-.3061.952ZM90 31.1953l.306-.952-.9837-.3162-.2838.9935.9615.2747Zm-3.2344 6.1875-.7111-.7031-.004.0041.7151.699Zm-9.9844-.3984-.8511.525.0023.0035.8488-.5285Zm-1.0781-17.836.995.1.096-.9555-.9509-.1346-.1401.9901Zm-1.5104-.5783c-.2649-1.1375-.4285-1.9391-.5002-2.4265l-1.9787.291c.0845.575.2646 1.4453.531 2.5891l1.9479-.4536Zm-.5002-2.4265c-.0671-.4561-.1066-1.2009-.1066-2.2686h-2c0 1.0886.0387 1.9532.1279 2.5596l1.9787-.291Zm-.4181-1.5433c.8419-.7991 1.7318-1.3835 2.6688-1.7694l-.7614-1.8493c-1.188.4891-2.2825 1.2172-3.2843 2.1681l1.3769 1.4506Zm2.6804-1.7742c.9213-.3929 1.9803-.5995 3.1936-.5995v-2c-1.4429 0-2.7745.2465-3.9782.7598l.7846 1.8397Zm3.1936-.5995c1.8605 0 3.0724.4661 3.8267 1.2233.755.7579 1.2202 1.9767 1.2202 3.847h2c0-2.1766-.5426-3.993-1.8032-5.2585-1.2614-1.2662-3.0729-1.8118-5.2437-1.8118v2Zm5.0469 5.0703c0 1.0182-.0961 2.2192-.2946 3.6086l1.9799.2828c.2077-1.4544.3147-2.7534.3147-3.8914h-2Zm-.2961 3.6192c-.1855 1.4065-.4569 3.1834-.8153 5.3336l1.9728.3288c.3604-2.1623.6358-3.9636.8253-5.4009l-1.9828-.2615Zm-.8153 5.3336c-.0471.2825-.1723 1.0415-.3753 2.2754l1.9734.3248c.2032-1.2348.328-1.9914.3747-2.2714l-1.9728-.3288Zm-.3753 2.2754c-.2052 1.247-.3497 2.3029-.4307 3.1622l1.9911.1879c.0752-.7969.212-1.8036.413-3.0253l-1.9734-.3248Zm-.1622 3.9428c.3964.4197.8853.7064 1.4418.8623l.5392-1.926c-.2247-.0629-.3921-.1668-.5269-.3096l-1.4541 1.3733Zm1.7114.8993c.3387 0 .6013-.1526.7131-.222.1458-.0904.2864-.2039.415-.3185.2601-.2317.5668-.5543.9126-.9484l-1.5033-1.3191c-.326.3715-.5701.6231-.7397.7742-.0862.0768-.1303.1069-.1387.1122-.0034.0021.0188-.0124.0627-.0293.0396-.0153.1388-.0491.2783-.0491v2Zm2.0398-1.4878c.7172-.815 1.4739-1.7903 2.27-2.9208l-1.6352-1.1516c-.7664 1.0882-1.4784 2.0036-2.1362 2.7511l1.5014 1.3213Zm2.27-2.9208c.7988-1.1344 1.4628-2.1933 1.9866-3.1755l-1.7647-.9412c-.4761.8928-1.0934 1.8807-1.8571 2.9651l1.6352 1.1516Zm2.1027-3.5902c.1241-2.2179.2944-4.2523.5105-6.1041l-1.9866-.2317c-.2214 1.8982-.3948 3.9732-.5208 6.224l1.9969.1118Zm-.2867-7.2005-2.4609-.4922-.3923 1.9611 2.461.4922.3922-1.9611Zm-1.6892.2367c-.1961-.7541-.327-1.3996-.3983-1.9413l-1.9829.2609c.085.6458.2354 1.3753.4455 2.1837l1.9357-.5033Zm-.3983-1.9413c-.0718-.5457-.1086-1.1346-.1086-1.768h-2c0 .7103.0413 1.3871.1257 2.0289l1.9829-.2609Zm-.1092-1.7323.0234-.6562-1.9987-.0714-.0235.6562 1.9988.0714Zm-.1885-.0756c.446-.5699 1.1579-1.1363 2.2009-1.6722l-.9142-1.7789c-1.207.6203-2.1826 1.3508-2.8617 2.2185l1.575 1.2326Zm2.2009-1.6722c.9638-.4953 2.0921-.7566 3.4101-.7566v-2c-1.5883 0-3.0381.3168-4.3243.9777l.9142 1.7789Zm3.4101-.7566c1.8605 0 3.0724.4661 3.8267 1.2233.7549.7579 1.2201 1.9767 1.2201 3.847h1.9998c0-2.1766-.542-3.993-1.803-5.2585-1.2613-1.2662-3.0729-1.8118-5.2436-1.8118v2Zm5.0468 5.0703c0 1.544-.259 3.6335-.8002 6.2928l1.9599.3988c.5521-2.7157.8401-4.9544.8401-6.6916h-1.9998Zm-.8 6.2916c-.5426 2.6514-1.1786 5.3349-1.9079 8.0506l1.9315.5187c.7394-2.7531 1.3848-5.4759 1.9358-8.1682l-1.9594-.4011Zm-.5434 9.227 2.6952-1.1719-.7974-1.8341-2.6953 1.1719.7975 1.8341Zm1.5663-1.4058c.3744.4002.7194.9078 1.0272 1.5373l1.7967-.8784c-.38-.7767-.831-1.4566-1.363-2.0252l-1.4609 1.3663Zm1.0394 1.5614c.2915.5575.4885 1.2283.5715 2.0302l1.989-.2058c-.104-1.0105-.361-1.9335-.788-2.7509l-1.7725.9265Zm.6595 1.5045c-.141.3029-.513.8026-1.2304 1.5204l1.4144 1.4142c.751-.7509 1.332-1.4543 1.629-2.0889l-1.813-.8457Zm-1.2228 1.5129c-.6552.6412-1.4721 1.2277-2.4637 1.7527l.9358 1.7676c1.1333-.6 2.1133-1.2948 2.9267-2.091l-1.3988-1.4293Zm-2.4637 1.7527c-.9243.4893-1.8737.7276-2.8603.7276v2c1.326 0 2.5953-.3243 3.7961-.96l-.9358-1.7676Zm-2.8603.7276c-1.0911 0-1.7947-.3145-2.2634-.8249l-1.4731 1.3528c.9375 1.0209 2.234 1.4721 3.7365 1.4721v-2Zm-2.2492-.8091c-.5021-.5705-.782-1.3157-.782-2.3159h-2c0 1.4059.4076 2.6452 1.2805 3.6371l1.5015-1.3212ZM91 35.3438c0-.2182.0628-.7778.2216-1.7627l-1.9745-.3185c-.1536.9527-.2471 1.6743-.2471 2.0812h2Zm.219-1.7472c.1722-.9706.3048-1.5935.3973-1.9103l-1.9201-.5601c-.1263.4332-.2749 1.1541-.4464 2.121l1.9692.3494Zm-.2567-3.1424-.6563-.2109-.612 1.904.6562.211.6121-1.9041Zm-1.9238.4664c-.7547 2.6412-1.7687 4.53-2.984 5.7591l1.4222 1.4062c1.5347-1.5521 2.677-3.7884 3.4848-6.6159l-1.923-.5494Zm-2.988 5.7632c-1.1942 1.2217-2.4993 1.785-3.9489 1.785v2c2.0503 0 3.8546-.8274 5.3791-2.387l-1.4302-1.398Zm-3.9489 1.785c-2.2838 0-3.6756-.7349-4.4715-2.013l-1.6977 1.0571c1.2666 2.0344 3.4217 2.9559 6.1692 2.9559v-2Zm-4.4692-2.0094c-.9118-1.4782-1.398-3.3554-1.398-5.686h-2c0 2.607.545 4.8704 1.6957 6.736l1.7023-1.05Zm-1.398-5.686c0-4.6215.1557-8.4605.4637-11.525l-1.99-.2c-.317 3.1544-.4737 7.0654-.4737 11.725h2Zm-.3912-12.6151-2.4843-.3516-.2803 1.9803 2.4844.3516.2802-1.9803Zm29.9538-7.4005.998.0555.059-1.05549h-1.057v.99999Zm-.024 0-.136.9907.068.0093h.068v-1Zm-3.585-.4922-.944.3315.202.5762.606.083.136-.9907Zm-.469-1.89841-.988.15371v.0034l.988-.15711Zm-.047-3.67969-.319-.9479-.591.19878-.082.61867.992.13045Zm7.476-1.47656.111.99383.005-.00058-.116-.99325Zm14.977.02344-.213.97705.008.00178.205-.97883Zm4.313 2.48437-.747.66553.009.00938.738-.67491Zm.937 9.14065.916.4008.002-.0042-.918-.3966Zm-2.156 3.539-.78-.626-.001.0013.781.6247Zm-2.742 2.5313-.529-.8488-2.233 1.3909 2.593.4436.169-.9857Zm3.304 1.2422-.524.8516.008.0047.008.0046.508-.8609Zm2.508 2.5078-.856.5163.003.0057.853-.522Zm-3.281 12.1406.553.8328.002-.0007-.555-.8321Zm-16.336 2.5313.052-.9987-.01-.0004-.042.9991Zm-4.078-.375-.984.1822.13.7009.705.1058.149-.9889Zm12.328-18.7969.077.997.647-.0503.218-.6112-.942-.3355Zm1.031-4.3359-.986-.1659-.001.0072.987.1587Zm.539-4.3126.999.0563.016-.2889-.141-.253-.874.4856Zm-1.195-.3515-.151.9886.011.0016.011.0014.129-.9916Zm-4.594-.0938-.055-.9984-.912.0506-.032.9123.999.0355Zm-.562 9.4688-.996-.089-.106 1.1794 1.181-.0935-.079-.9969Zm2.367-.1875-.078-.997-.001.0001.079.9969Zm4.054 12.7969.191.9816.173-.0336.151-.0905-.515-.8575Zm1.032-1.2657-.89-.4563-.005.0091-.004.0093.899.4379Zm.703-1.9922.977.2125.001-.0043-.978-.2082Zm.234-1.9687h1v-.1682l-.055-.1589-.945.3271Zm-7.851-1.0078-.102-.9948-.011.0011-.011.0014.124.9923Zm-.844.0703v-1h-.98l-.02.9795 1 .0205Zm-.07 3.4219.999.0454v-.0249l-.999-.0205Zm-.071 2.7187h-1v.8861l.88.1067.12-.9928Zm-7.109-11.4844c0-4.7287.07-8.3396.209-10.8429l-1.997-.111c-.142 2.5593-.212 6.214-.212 10.9539h2Zm-.789-11.89839h-.024v1.99999h.024V9.75781Zm.112.00929-3.586-.49219-.271 1.98139 3.585.4922.272-1.9814Zm-2.778.16704c-.181-.51441-.323-1.08805-.425-1.72407l-1.975.31423c.118.73899.288 1.43097.513 2.0728l1.887-.66296Zm-.424-1.72066c-.102-.65649-.152-1.28467-.152-1.88536h-2c0 .71182.059 1.44301.176 2.19277l1.976-.30741Zm-.152-1.88536c0-.44885.035-.95151.108-1.51017l-1.983-.2609c-.082.62884-.125 1.21993-.125 1.77107h2Zm-.565-.69272c1.814-.60931 4.228-1.09104 7.269-1.43064l-.222-1.98764c-3.115.34789-5.684.85054-7.684 1.52248l.637 1.8958Zm7.274-1.43121c3.044-.35535 5.943-.53231 8.697-.53231v-2c-2.84 0-5.816.18241-8.929.5458l.232 1.98651Zm8.697-.53231c2.343 0 4.322.18412 5.951.53951l.426-1.95403c-1.808-.39461-3.938-.58548-6.377-.58548v2Zm5.959.54133c1.512.31608 2.759 1.03569 3.771 2.17102l1.493-1.33096c-1.3-1.45842-2.929-2.39506-4.854-2.79773l-.41 1.95767Zm3.78 2.18045c.939 1.02687 1.495 2.65548 1.495 5.06724h2c0-2.68191-.615-4.88143-2.02-6.41706L127.7 6.39366Zm1.495 5.06724c0 .8224-.226 1.817-.738 3.0018l1.836.7933c.582-1.3464.902-2.6174.902-3.7951h-2Zm-.736 2.9977c-.51 1.1658-1.182 2.2702-2.02 3.3138l1.56 1.2521c.943-1.1752 1.708-2.4302 2.292-3.7643l-1.832-.8016Zm-2.021 3.3151c-.821 1.0263-1.654 1.7861-2.49 2.3072l1.057 1.6976c1.07-.6664 2.066-1.5942 2.995-2.7554l-1.562-1.2494Zm-2.13 4.1417c1.063.1818 2.044.5508 2.949 1.1081l1.048-1.7033c-1.125-.6927-2.348-1.1517-3.66-1.3762l-.337 1.9714Zm2.965 1.1174c.883.522 1.601 1.2374 2.16 2.1632l1.712-1.0327c-.723-1.1991-1.676-2.1556-2.855-2.8524l-1.017 1.7219Zm2.163 2.1689c.529.8645.814 1.9193.814 3.2045h2c0-1.5897-.356-3.0193-1.108-4.2485l-1.706 1.044Zm.814 3.2045c0 1.7949-.343 3.2837-.986 4.5018l1.769.934c.825-1.5631 1.217-3.3868 1.217-5.4358h-2Zm-.986 4.5018c-.653 1.2376-1.584 2.2626-2.811 3.0803l1.11 1.6641c1.492-.9949 2.655-2.2667 3.47-3.8104l-1.769-.934Zm-2.81 3.0795c-2.427 1.6137-5.954 2.4813-10.696 2.4813v2c4.945 0 8.919-.8981 11.803-2.8157l-1.107-1.6656Zm-10.696 2.4813c-1.894 0-3.571-.0389-5.034-.1159l-.105 1.9973c1.506.0792 3.22.1186 5.139.1186v-2Zm-5.044-.1163c-1.438-.0613-2.762-.1834-3.972-.3649l-.297 1.9779c1.291.1935 2.686.3214 4.184.3852l.085-1.9982Zm-3.137.4418c-.654-3.5288-.991-9.2243-.991-17.1381h-2c0 7.93.335 13.7814 1.024 17.5026l1.967-.3645Zm12.287-18.2791c.434-1.2178.79-2.7275 1.076-4.5128l-1.974-.3173c-.276 1.7147-.607 3.0956-.986 4.1591l1.884.671Zm1.075-4.5056c.3-1.7829.486-3.2608.552-4.4221l-1.997-.1125c-.06 1.0574-.233 2.4546-.527 4.2029l1.972.3317Zm.427-4.964c-.155-.2803-.392-.4273-.517-.495-.144-.0782-.297-.1323-.432-.1721-.273-.0802-.612-.141-.991-.1904l-.258 1.9832c.339.0443.559.089.685.126.064.0188.07.0262.045.0124-.015-.0077-.052-.0291-.099-.0688-.046-.0393-.118-.1114-.181-.224l1.748-.9713Zm-1.919-.8545c-.788-.12-1.773-.1755-2.939-.1755v2c1.115 0 1.989.0539 2.638.1527l.301-1.9772Zm-2.939-.1755c-.39 0-1.016.025-1.86.0719l.111 1.9969c.843-.0468 1.42-.0688 1.749-.0688v-2Zm-2.804 1.0348c-.125 3.502-.311 6.64-.559 9.4153l1.992.178c.252-2.8184.44-5.993.565-9.5222l-1.998-.0711Zm.516 10.5012 2.367-.1875-.158-1.9938-2.367.1875.158 1.9938Zm2.365-.1874 2.414-.1875-.155-1.994-2.414.1875.155 1.994Zm1.165 12.9639c1.316 0 2.338-.0531 3.003-.1824l-.381-1.9633c-.46.0894-1.313.1457-2.622.1457v2Zm3.327-.3065c.619-.3716 1.073-.9815 1.416-1.6852l-1.798-.8759c-.251.515-.485.7489-.647.8461l1.029 1.715Zm1.407-1.6668c.354-.6921.617-1.4389.79-2.2361l-1.954-.4249c-.139.6403-.346 1.2216-.616 1.7483l1.78.9127Zm.791-2.2404c.167-.7837.256-1.5117.256-2.1769h-2c0 .491-.066 1.0756-.212 1.7606l1.956.4163Zm.201-2.504c-.303-.8762-1.13-1.316-1.926-1.5473-.832-.2418-1.92-.3443-3.214-.3443v2c1.221 0 2.09.1005 2.657.2649.602.175.615.3446.593.2809l1.89-.6542Zm-5.14-1.8916c-1.105 0-2.359.073-3.758.2161l.203 1.9896c1.351-.1381 2.535-.2057 3.555-.2057v-2Zm-3.78.2186c-.367.0458-.597.0626-.72.0626v2c.252 0 .584-.0301.968-.078l-.248-1.9846Zm-1.72 1.0421-.07 3.4218 1.999.0411.071-3.4219-2-.041Zm-.069 3.397c-.016.3483-.032.7505-.048 1.2062l1.999.0689c.016-.4505.031-.8451.047-1.1843l-1.998-.0908Zm-.048 1.2062c-.016.467-.024.9865-.024 1.5579h2c0-.5536.008-1.0496.023-1.489l-1.999-.0689Zm.856 2.5507c1.077.1305 2.243.1947 3.495.1947v-2c-1.185 0-2.269-.0608-3.254-.1802l-.241 1.9855Zm3.495.1947h.68v-2h-.68v2Zm16.453-25.98435-.971.23879.157.63661.646.11034.168-.98574Zm-.468-2.36719-.993.12106v.00298l.993-.12404Zm-.094-2.20312-.789-.61394-.205.26253-.006.33254 1 .01887Zm1.523-1.26563.523.85234.006-.00328-.529-.84906Zm2.438-1.10156-.302-.953354-.005.001493.307.951861Zm7.617 21.74995.992.1269v-.0006l-.992-.1263Zm-1.5 8.9766-.977-.2144-.117.5345.387.387.707-.7071Zm.047.0469-.707.7071.474.4745.619-.2593-.386-.9223Zm3.469-1.4531.651-.7586-.468-.4024-.57.2386.387.9224Zm2.133 4.1718h1v-.0583l-.007-.058-.993.1163Zm-1.055 1.3594.743.669.007-.0074-.75-.6616Zm-2.789 2.2031.507.8617.004-.0021-.511-.8596Zm-7.711-.2812-.67.7427.006.0054.664-.7481Zm-1.36-4.4063 1 .0226v-.0115l-1-.0111Zm.047-4.2187 1 .0111v-.0072l-1-.0039Zm.118-10.8047-1-.0244v.0049l1 .0195Zm.468-9.91406.998.06864.062-.90218-.891-.1522-.169.98574Zm-1.911-.73098c-.23-.93366-.377-1.68112-.448-2.25243l-1.985.24807c.085.67869.251 1.50935.49 2.48194l1.943-.47758Zm-.448-2.24945c-.071-.58337-.101-1.26946-.086-2.06321l-2-.03773c-.016.86251.016 1.64516.101 2.34305l1.985-.24211Zm-.297-1.46813c.227-.29166.625-.63943 1.257-1.02724l-1.046-1.70465c-.743.45594-1.36.95191-1.789 1.50401l1.578 1.22788Zm1.263-1.03051c.623-.38773 1.359-.72284 2.215-.99876l-.613-1.903721c-.987.317829-1.876.717101-2.659 1.204371l1.057 1.69811Zm2.211-.99728c.838-.26543 1.705-.39865 2.604-.39865V-.0390625c-1.101 0-2.171.1636485-3.208.4919705l.604 1.906682Zm2.604-.39865c1.792 0 3.012.44977 3.815 1.20508l1.37-1.45704c-1.29-1.213435-3.07-1.7480425-5.185-1.7480425V1.96094Zm3.815 1.20508c.785.73787 1.255 1.88786 1.255 3.63086h2c0-2.10076-.576-3.85702-1.885-5.0879l-1.37 1.45704Zm1.255 3.63086c0 1.33365-.114 3.51172-.348 6.55612l1.994.1534c.234-3.0494.354-5.29318.354-6.70952h-2Zm-.348 6.55612c-.233 3.0283-.567 6.2538-1.003 9.677l1.984.2525c.439-3.4518.777-6.7107 1.013-9.7761l-1.994-.1534Zm-1.003 9.6764c-.435 3.4011-.93 6.3628-1.485 8.889l1.954.4288c.57-2.5988 1.075-5.6214 1.515-9.0641l-1.984-.2537Zm-1.215 9.8105.047.0469 1.414-1.4142-.047-.0469-1.414 1.4142Zm1.14.2621 3.469-1.4531-.773-1.8447-3.468 1.4531.772 1.8447Zm2.431-1.6169c1.011.8685 1.615 2.0211 1.791 3.5297l1.987-.2327c-.23-1.9601-1.048-3.5888-2.475-4.8141l-1.303 1.5171Zm1.785 3.4133c0-.1186.022-.2087.035-.2526.014-.0486.028-.0835.036-.1006.015-.0328.024-.0454.015-.0303-.018.0284-.061.0896-.14.1924-.157.2015-.404.4954-.751.8889l1.5 1.3232c.356-.4033.636-.7344.831-.9861.096-.1238.185-.2462.256-.3584.034-.0552.076-.1274.113-.209.024-.0532.105-.233.105-.4675h-2Zm-.798.6904c-.62.6889-1.465 1.3629-2.557 2.0126l1.022 1.7191c1.22-.7254 2.235-1.5201 3.021-2.3937l-1.486-1.338Zm-2.554 2.0105c-.969.5707-2.102.8695-3.43.8695v2c1.641 0 3.133-.3731 4.445-1.1462l-1.015-1.7233Zm-3.43.8695c-1.352 0-2.358-.3705-3.11-1.0372l-1.327 1.4962c1.186 1.0521 2.696 1.541 4.437 1.541v-2Zm-3.104-1.0318c-.633-.5711-1.073-1.6771-1.029-3.641l-1.999-.0451c-.05 2.1923.416 4.0238 1.689 5.1715l1.339-1.4854Zm-1.029-3.6525.047-4.2187-2-.0222-.047 4.2187 2 .0222Zm.047-4.2259c.016-3.996.055-7.5923.117-10.7891l-1.999-.039c-.063 3.2094-.102 6.8163-.118 10.8203l2 .0078Zm.117-10.7842c.078-3.1875.233-6.4774.467-9.86982l-1.995-.13729c-.236 3.42001-.393 6.73951-.471 9.95831l1.999.0488Zm-.362-10.9242-2.883-.49219-.337 1.97148 2.883.49218.337-1.97147Zm19.542 5.1107.52.8544.005-.0032-.525-.8512Zm14.414.0235-.549.8354.005.0034.544-.8388Zm3.727 4.8281-.947.3227.003.0064.944-.3291Zm-.352 14.8125-.912-.4093-.002.0032.914.4061Zm-4.265 5.0156.541.8405.002-.0011-.543-.8394Zm-16.196-2.0859-.809.5876.002.0023.807-.5899Zm11.649-3.1406.588.8087.172-.1254.107-.1849-.867-.4984Zm.867-9.7735-.99.1435.001.002.989-.1455Zm-.656-2.5312.908-.4191-.057-.1232-.088-.1037-.763.646Zm-1.032-.4453-.207.9782.014.003.015.0026.178-.9838Zm-3.328.0937-.501-.8654-.23.1331-.133.2297.864.5026Zm-.257 12.2344-.964.2684.065.2325.164.1774.735-.6783Zm1.148.4687-.186.9826.013.0024.013.0021.16-.9871Zm-10.25-7.3125c0-2.7235.436-5.0347 1.276-6.9596l-1.833-.7995c-.973 2.2313-1.443 4.8264-1.443 7.7591h2Zm1.276-6.9596c.827-1.896 2.082-3.3436 3.775-4.3735l-1.04-1.7087c-2.057 1.2514-3.583 3.0225-4.568 5.2827l1.833.7995Zm3.78-4.3767c1.678-1.0349 3.835-1.5855 6.53-1.5855v-2c-2.962 0-5.508.6056-7.58 1.8832l1.05 1.7023Zm6.53-1.5855c3.016 0 5.251.5678 6.81 1.5932l1.099-1.6708c-2.004-1.3184-4.675-1.9224-7.909-1.9224v2Zm6.815 1.5966c1.588 1.0307 2.691 2.4557 3.324 4.312l1.893-.6454c-.773-2.2687-2.154-4.0625-4.128-5.3442l-1.089 1.6776Zm3.327 4.3184c.671 1.9258 1.022 4.3307 1.022 7.2412h2c0-3.0582-.368-5.7002-1.134-7.8994l-1.888.6582Zm1.022 7.2412c0 2.5846-.455 4.8557-1.342 6.833l1.825.8184c1.019-2.2727 1.517-4.8297 1.517-7.6514h-2Zm-1.344 6.8361c-.86 1.9352-2.154 3.4552-3.895 4.5823l1.087 1.6788c2.072-1.3416 3.621-3.1653 4.636-5.4489l-1.828-.8122Zm-3.893 4.5812c-1.697 1.0936-3.818 1.6687-6.419 1.6687v2c2.899 0 5.418-.6437 7.502-1.9877l-1.083-1.681Zm-6.419 1.6687c-4.041 0-6.766-1.23-8.427-3.504l-1.615 1.1798c2.151 2.9447 5.583 4.3242 10.042 4.3242v-2Zm-8.426-3.5017c-1.747-2.4058-2.668-5.6484-2.668-9.8187h-2c0 4.4548.985 8.1497 3.05 10.9939l1.618-1.1752Zm9.387-1.3655c.418 0 .786-.0161 1.089-.0551.245-.0317.641-.0974.952-.3237l-1.176-1.6175c.091-.0666.155-.0791.126-.0707-.019.0052-.068.0166-.158.0283-.182.0235-.455.0387-.833.0387v2Zm2.32-.6891c.444-.7726.743-1.7883.94-2.9847l-1.974-.3244c-.178 1.0849-.426 1.8348-.7 2.3122l1.734.9969Zm.94-2.9847c.197-1.2014.294-2.4907.294-3.8653h-2c0 1.2816-.09 2.4611-.268 3.5409l1.974.3244Zm.294-3.8653c0-1.2611-.08-2.4508-.245-3.5674l-1.978.291c.148 1.0084.223 2.1.223 3.2764h2Zm-.244-3.5653c-.163-1.122-.4-2.0729-.738-2.8069l-1.816.8381c.223.4848.424 1.2214.574 2.2557l1.98-.2869Zm-.883-3.0338c-.411-.4854-1.06-.6822-1.616-.7832l-.357 1.9677c.21.0383.346.0811.427.1159.084.0364.065.0457.019-.0085l1.527-1.2919Zm-1.587-.7776c-.594-.1259-1.226-.1858-1.895-.1858v2c.55 0 1.042.0494 1.48.1423l.415-1.9565Zm-1.895-.1858c-.43 0-.821.0229-1.163.0766-.33.0518-.678.1418-.979.3158l1.002 1.7308c-.003.0021.07-.0367.287-.0709.206-.0322.486-.0523.853-.0523v-2Zm-2.505.7552c-.906 1.5573-1.308 3.6241-1.308 6.1042h2c0-2.3012.38-3.9688 1.037-5.099l-1.729-1.0052Zm-1.308 6.1042c0 1.176.09 2.373.269 3.5904l1.979-.2902c-.166-1.1264-.248-2.2263-.248-3.3002h-2Zm.269 3.5904c.177 1.2057.403 2.3102.682 3.3108l1.927-.5369c-.253-.9056-.463-1.9261-.63-3.0641l-1.979.2902Zm.911 3.7207c.425.461 1.101.6602 1.697.773l.372-1.9651c-.249-.047-.419-.0978-.529-.1425-.117-.0478-.113-.068-.071-.022l-1.469 1.3566Zm1.723.7775c.634.1029 1.29.1536 1.965.1536v-2c-.575 0-1.123-.0432-1.645-.1278l-.32 1.9742Zm33.254 8.927.292.9562.239-.0729.176-.1762-.707-.7071Zm.492-.8203-.954-.3011-.002.0068-.002.0069.958.2874Zm.07-1.4766.949-.3162-.006-.0176-.006-.0173-.937.3511Zm-.234-.3515.707-.7071-.227-.2266-.316-.0527-.164.9864Zm-2.32-.2344.052-.9986-.008-.0005-.009-.0003-.035.9994Zm-1.571-.0703.091-.9959-.024-.0022-.024-.001-.043.9991Zm-5.297-.4688-.17.9855.011.0018.159-.9873Zm-3.492-1.5-.628.7785.008.0061.62-.7846Zm-.633-5.8828.802.5973.006-.0081-.808-.5892Zm2.133-1.9687.541.8411 1.611-1.0356-1.771-.73-.381.9245Zm-4.289-3.3047-.813.5821.007.0096.806-.5917Zm.188-11.3438-.764-.6459v.0007l.764.6452Zm16.171-2.6015-.397.9175 1.691.7329-.308-1.8174-.986.167Zm-1.007-5.95316-.519-.85501-.581.35224.114.66968.986-.16691Zm8.484 1.125.981-.19612-.044-.21634-.13-.17805-.807.59051Zm-.656 5.03906-.959-.2847-.002.0062.961.2785Zm-2.367 3.7734-.647-.7629-.599.5077.351.7025.895-.4473Zm-.258 8.9063-.91-.4152-.003.0074.913.4078Zm-3.61 3.9375.51.8603.006-.0035-.516-.8568Zm-9.023 1.3594.11-.9939-1.045-.1162-.063 1.0502.998.0599Zm.562 2.3437-.879.4752.348.6455.721-.1387-.19-.982Zm5.11-.6328.012.9999h.003l-.015-.9999Zm1.594-.0234v-1h-.008l-.007.0001.015.9999Zm4.898.3984.237-.9716-.004-.0009-.233.9725Zm2.719 2.0156-.87.4934.006.0097.864-.5031Zm-1.242 9.7266-.743-.6698-.007.0077.75.6621Zm-5.555 3.5859-.324-.946-.002.0007.326.9453Zm-17.016-4.4062-.961-.2758-.071.2472.057.2508.975-.2222Zm2.953-4.0781.515-.8575-.529-.3175-.521.3305.535.8445Zm5.602 2.5078-.27.9628.002.0006.268-.9634Zm5.414-17.2969.6.8.189-.1417.105-.2111-.894-.4472Zm0-5.2031.887-.4609-.09-.1751-.151-.1274-.646.7634Zm-1.359-.3985-.135.9909.002.0004.133-.9913Zm-4.289.0469-.342-.9398-.348.1265-.182.3223.872.491Zm-.047 5.1328-.87.4943.123.216.21.1334.537-.8437Zm1.547.4922-.158.9876.013.002.012.0016.133-.9912Zm3.609 18.9766c1.117 0 2.127-.1246 3.011-.3954l-.585-1.9124c-.647.198-1.45.3078-2.426.3078v2Zm3.426-.6445c.349-.3494.601-.7664.743-1.2401l-1.916-.5747c-.045.1514-.122.2813-.241.4006l1.414 1.4142Zm.738-1.2263c.12-.3779.187-.7613.187-1.1449h-2c0 .1477-.026.3269-.094.5427l1.907.6022Zm.187-1.1449c0-.3104-.022-.652-.121-.949l-1.897.6325c-.007-.0183 0-.0049.007.0578.007.0593.011.1439.011.2587h2Zm-.133-.9839c-.105-.2782-.27-.5131-.464-.7075l-1.414 1.4142c.012.0126.016.0187.015.0175-.001-.0016-.005-.009-.01-.022l1.873-.7022Zm-1.007-.9868c-.703-.1172-1.516-.1984-2.432-.2466l-.105 1.9972c.865.0455 1.599.1206 2.208.2222l.329-1.9728Zm-2.449-.2474c-.889-.0317-1.378-.0543-1.515-.0668l-.181 1.9918c.206.0187.764.043 1.625.0738l.071-1.9988Zm-1.563-.07c-2.152-.0929-3.875-.2469-5.181-.457l-.318 1.9746c1.413.2274 3.222.386 5.413.4805l.086-1.9981Zm-5.17-.4551c-1.214-.2094-2.219-.6487-3.042-1.2991l-1.24 1.5691c1.115.8808 2.438 1.4415 3.942 1.7009l.34-1.9709Zm-3.034-1.293c-.675-.5441-1.081-1.3926-1.081-2.7372h-2c0 1.7804.563 3.2756 1.825 4.294l1.256-1.5568Zm-1.081-2.7372c0-.6099.192-1.1926.622-1.7699l-1.604-1.1946c-.664.8915-1.018 1.8869-1.018 2.9645h2Zm.628-1.778c.466-.6389 1.082-1.213 1.866-1.7168l-1.082-1.6823c-.966.6212-1.772 1.3596-2.4 2.2207l1.616 1.1784Zm1.706-3.4824c-1.622-.6687-2.9-1.6596-3.864-2.972l-1.612 1.1835c1.193 1.6252 2.773 2.8374 4.714 3.6375l.762-1.849Zm-3.857-2.9623c-.91-1.272-1.407-2.9658-1.407-5.1601h-2c0 2.4932.566 4.6275 1.781 6.3242l1.626-1.1641Zm-1.407-5.1601c0-2.1562.547-3.7742 1.546-4.9564l-1.528-1.2904c-1.377 1.6304-2.018 3.7467-2.018 6.2468h2Zm1.545-4.9556c1.085-1.2828 2.407-2.1768 3.98-2.6964l-.627-1.8991c-1.927.6366-3.559 1.7426-4.88 3.3036l1.527 1.2919Zm3.98-2.6964c1.65-.5453 3.326-.8168 5.03-.8168v-2c-1.921 0-3.808.3067-5.657.9177l.627 1.8991Zm5.03-.8168c1.076 0 2.128.1032 3.155.3087l.393-1.9611c-1.16-.232-2.343-.3476-3.548-.3476v2Zm3.155.3087c1.031.2062 1.979.4988 2.846.8745l.795-1.8351c-1.008-.4367-2.092-.7692-3.248-1.0005l-.393 1.9611Zm4.229-.21-1.007-5.95308-1.972.33383 1.007 5.95315 1.972-.3339Zm-1.475-4.93115c.759-.46047 1.755-.7222 3.044-.7222v-2c-1.555 0-2.934.31639-4.081 1.01218l1.037 1.71002Zm3.044-.7222c.918 0 1.756.15258 2.523.44855l.72-1.86585c-1.014-.39153-2.098-.5827-3.243-.5827v2Zm2.523.44855c.748.28889 1.257.67698 1.592 1.13415l1.614-1.18102c-.603-.82408-1.453-1.42037-2.486-1.81898l-.72 1.86585Zm1.418.73975c.011.05276.028.21849.028.55389h2c0-.3521-.014-.68637-.066-.94612l-1.962.39223Zm.028.55389c0 1.16194-.213 2.49376-.662 4.00436l1.917.5694c.489-1.6456.745-3.17321.745-4.57376h-2Zm-.664 4.01056c-.404 1.3939-1.093 2.4759-2.053 3.289l1.293 1.5259c1.29-1.0932 2.179-2.5268 2.681-4.2579l-1.921-.557Zm-2.301 4.4992c.491.9817.738 2.0389.738 3.1856h2c0-1.4472-.315-2.8118-.949-4.0801l-1.789.8945Zm.738 3.1856c0 1.7742-.341 3.3891-1.011 4.8583l1.82.8302c.798-1.7496 1.191-3.6503 1.191-5.6885h-2Zm-1.014 4.8656c-.626 1.401-1.679 2.5655-3.212 3.4885l1.031 1.7136c1.841-1.1082 3.195-2.5687 4.007-4.3865l-1.826-.8156Zm-3.206 3.485c-1.486.8803-3.488 1.3603-6.077 1.3603v2c2.818 0 5.207-.52 7.096-1.6397l-1.019-1.7206Zm-6.077 1.3603c-.741 0-1.516-.0445-2.327-.1345l-.22 1.9877c.877.0975 1.726.1468 2.547.1468v-2Zm-3.435.7995c-.06.9912.182 1.9562.681 2.8788l1.759-.9503c-.345-.64-.478-1.2374-.444-1.8087l-1.996-.1198Zm1.75 3.3856c2.083-.4013 3.72-.6003 4.932-.6149l-.024-1.9998c-1.382.0166-3.152.2395-5.287.6508l.379 1.9639Zm4.935-.6149 1.593-.0234-.029-1.9998-1.594.0234.03 1.9998Zm1.579-.0233c2.134 0 3.672.1332 4.665.3709l.466-1.945c-1.226-.2935-2.953-.4259-5.131-.4259v2Zm4.661.37c.964.2347 1.635.7416 2.086 1.5374l1.74-.9867c-.737-1.298-1.878-2.1348-3.352-2.4939l-.474 1.9432Zm2.092 1.5471c.501.8617.778 1.9522.778 3.3172h2c0-1.6349-.333-3.0913-1.05-4.3233l-1.728 1.0061Zm.778 3.3172c0 2.121-.643 3.844-1.899 5.2365l1.485 1.3396c1.619-1.7951 2.414-4.0096 2.414-6.5761h-2Zm-1.906 5.2442c-1.293 1.4641-2.991 2.5699-5.129 3.302l.648 1.8921c2.425-.8304 4.43-2.1152 5.98-3.8699l-1.499-1.3242Zm-5.131 3.3027c-2.154.7428-4.45 1.1172-6.893 1.1172v2c2.651 0 5.168-.4069 7.545-1.2265l-.652-1.8907Zm-6.893 1.1172c-2.246 0-4.209-.3791-5.908-1.1132l-.793 1.8358c1.989.8596 4.229 1.2774 6.701 1.2774v-2Zm-5.908-1.1132c-1.523-.6584-2.493-1.8422-2.914-3.6872l-1.95.4445c.548 2.405 1.907 4.1432 4.071 5.0785l.793-1.8358Zm-2.928-3.1891c.455-1.5837 1.3-2.7305 2.528-3.5095l-1.071-1.6889c-1.679 1.0648-2.802 2.6367-3.379 4.6468l1.922.5516Zm1.478-3.4965c2.013 1.2076 3.962 2.0843 5.846 2.6132l.54-1.9256c-1.678-.4712-3.464-1.2664-5.357-2.4025l-1.029 1.7149Zm5.848 2.6138c1.861.5178 3.578.7866 5.143.7866v-2c-1.341 0-2.874-.2312-4.607-.7134l-.536 1.9268Zm3.713-17.0494c.577 0 1.063-.0177 1.443-.0584.189-.0203.373-.0484.54-.0901.143-.0358.377-.1054.586-.2624l-1.2-1.6c.116-.0867.197-.0948.129-.0779-.044.0111-.129.0269-.268.0418-.277.0296-.682.047-1.23.047v2Zm2.863-.7637c.488-.9742.739-1.9937.739-3.0488h-2c0 .7262-.171 1.441-.527 2.1544l1.788.8944Zm.739-3.0488c0-1.0811-.249-2.1065-.746-3.0624l-1.774.9217c.347.6691.52 1.3781.52 2.1407h2Zm-.987-3.3649c-.261-.2208-.584-.3449-.857-.4248-.293-.0859-.637-.1509-1.016-.2015l-.265 1.9825c.324.0431.559.0914.719.1383.18.0529.185.0811.127.0322l1.292-1.5267Zm-1.87-.6259c-.739-.1008-1.535-.1498-2.385-.1498v2c.774 0 1.479.0447 2.115.1315l.27-1.9817Zm-2.385-.1498c-.526 0-.982.016-1.363.0511-.366.0336-.724.0896-1.018.1966l.683 1.8796c.05-.018.203-.0557.518-.0846.298-.0275.689-.0427 1.18-.0427v-2Zm-2.911.6965c-.557.9898-.855 2.0245-.855 3.0926h2c0-.682.187-1.3816.598-2.1106l-1.743-.982Zm-.855 3.0926c0 1.0691.274 2.0826.81 3.0255l1.739-.9886c-.37-.6508-.549-1.3248-.549-2.0369h-2Zm1.143 3.3749c.513.3266 1.186.5183 1.926.6361l.315-1.9752c-.635-.101-.993-.2374-1.167-.3482l-1.074 1.6873Zm1.951.6397c.75.0999 1.521.1494 2.312.1494v-2c-.708 0-1.39-.0442-2.047-.1318l-.265 1.9824Z" fill="#000"/></svg>